<svg width="28" height="28" viewBox="0 0 28 28" fill="none" xmlns="http://www.w3.org/2000/svg">
<g clip-path="url(#clip0_88_25)">
<path d="M22.1667 6.98833V6.41667C22.1667 2.87817 19.2873 0 15.75 0H12.25C8.71267 0 5.83333 2.87817 5.83333 6.41667V6.98833C2.18167 9.37067 0 13.3607 0 17.7298V27.4167C0 27.7387 0.261333 28 0.583333 28C0.905333 28 1.16667 27.7387 1.16667 27.4167V17.7298C1.16667 14.021 2.90267 10.6202 5.83333 8.41983V17.5C5.83333 22.0022 9.49783 25.6667 14 25.6667C18.5022 25.6667 22.1667 22.0022 22.1667 17.5V8.41983C25.0973 10.6202 26.8333 14.0222 26.8333 17.7298V27.4167C26.8333 27.7387 27.0947 28 27.4167 28C27.7387 28 28 27.7387 28 27.4167V17.7298C28 13.3607 25.8183 9.37183 22.1667 6.98833ZM21 17.5C21 21.3605 17.8605 24.5 14 24.5C10.1395 24.5 7 21.3605 7 17.5V6.41667C7 3.52217 9.3555 1.16667 12.25 1.16667H15.75C18.6445 1.16667 21 3.52217 21 6.41667V17.5ZM18.8837 16.9587L16.6168 16.051L15.7092 13.7842C15.5342 13.3408 14.8027 13.3408 14.6265 13.7842L13.7212 16.0452L11.4613 16.9003C11.2385 16.9843 11.0892 17.1967 11.0845 17.4358C11.0798 17.6738 11.221 17.8908 11.4415 17.9842L13.7165 18.9432L14.6265 21.2158C14.714 21.4375 14.9298 21.5822 15.1678 21.5822C15.4058 21.5822 15.6217 21.4375 15.7092 21.2158L16.6168 18.949L18.8837 18.0413C19.1053 17.9538 19.25 17.738 19.25 17.5C19.25 17.262 19.1053 17.0462 18.8837 16.9587ZM15.9507 17.9597C15.8025 18.0192 15.6847 18.1358 15.6263 18.284L15.1667 19.4297L14.707 18.284C14.6498 18.1393 14.5367 18.0227 14.392 17.9632L13.2358 17.4755L14.3722 17.0462C14.525 16.9878 14.6463 16.8688 14.707 16.7172L15.1667 15.5715L15.6263 16.7172C15.6858 16.8653 15.8025 16.9832 15.9507 17.0415L17.0963 17.5012L15.9507 17.9608V17.9597ZM12.292 10.717C12.3795 10.9387 12.5953 11.0833 12.8333 11.0833C13.0713 11.0833 13.2872 10.9375 13.3747 10.717L14.1155 8.86667L15.967 8.12583C16.1887 8.03717 16.3333 7.8225 16.3333 7.5845C16.3333 7.3465 16.1887 7.13183 15.967 7.04317L14.1155 6.30233L13.3747 4.452C13.1997 4.00867 12.4682 4.00867 12.292 4.452L11.5535 6.29767L9.71017 6.99533C9.48733 7.0805 9.338 7.29167 9.33333 7.52967C9.32867 7.76767 9.46983 7.98583 9.69033 8.078L11.55 8.86083L12.292 10.717ZM12.2068 7.29517C12.3597 7.23683 12.481 7.11783 12.5417 6.96617L12.8333 6.23817L13.125 6.96617C13.1845 7.11433 13.3012 7.23217 13.4493 7.29167L14.1785 7.58333L13.4493 7.875C13.3012 7.9345 13.1833 8.05233 13.125 8.2005L12.8333 8.9285L12.5417 8.2005C12.4845 8.05583 12.3713 7.94033 12.2267 7.87967L11.487 7.56817L12.2057 7.29633L12.2068 7.29517Z" fill="black"/>
</g>
<defs>
<clipPath id="clip0_88_25">
<rect width="28" height="28" fill="white"/>
</clipPath>
</defs>
</svg>
