<svg width="544" height="75" viewBox="0 0 544 75" fill="none" xmlns="http://www.w3.org/2000/svg">
<path d="M60.2352 65.872C57.0026 68.6521 53.382 70.7856 49.3735 72.2727C45.365 73.7597 41.211 74.5032 36.9116 74.5032C33.6143 74.5032 30.4301 74.0668 27.3591 73.194C24.3204 72.3535 21.4595 71.1574 18.7763 69.6057C16.1256 68.0217 13.7011 66.1306 11.5029 63.9324C9.30464 61.7342 7.41354 59.3097 5.82953 56.6589C4.27786 53.9758 3.06561 51.1149 2.19279 48.0762C1.3523 45.0052 0.932052 41.821 0.932052 38.5237C0.932052 35.2264 1.3523 32.0422 2.19279 28.9712C3.06561 25.9001 4.27786 23.0392 5.82953 20.3884C7.41354 17.7053 9.30464 15.2647 11.5029 13.0665C13.7011 10.8682 16.1256 8.9933 18.7763 7.44163C21.4595 5.85762 24.3204 4.64537 27.3591 3.80488C30.4301 2.93206 33.6143 2.49566 36.9116 2.49566C41.211 2.49566 45.365 3.23917 49.3735 4.72619C53.382 6.18089 57.0026 8.31445 60.2352 11.1269L52.8648 23.2493C50.8282 21.0511 48.4198 19.3701 45.6398 18.2064C42.8597 17.0103 39.9503 16.4123 36.9116 16.4123C33.8405 16.4123 30.9635 16.9941 28.2804 18.1579C25.5973 19.3217 23.2536 20.9057 21.2493 22.9099C19.2451 24.8818 17.6611 27.2255 16.4973 29.941C15.3336 32.6241 14.7517 35.485 14.7517 38.5237C14.7517 41.5624 15.3336 44.4233 16.4973 47.1064C17.6611 49.7572 19.2451 52.0847 21.2493 54.0889C23.2536 56.0932 25.5973 57.6772 28.2804 58.8409C30.9635 60.0047 33.8405 60.5866 36.9116 60.5866C39.9503 60.5866 42.8597 60.0047 45.6398 58.8409C48.4198 57.6449 50.8282 55.9477 52.8648 53.7495L60.2352 65.872ZM372.177 38.2327C372.177 41.4331 371.756 44.5203 370.916 47.4943C370.108 50.436 368.944 53.1999 367.425 55.7861C365.905 58.3399 364.095 60.6836 361.994 62.8171C359.893 64.9183 357.549 66.7286 354.963 68.248C352.377 69.7673 349.597 70.9473 346.623 71.7878C343.681 72.5959 340.61 73 337.409 73H316.462V3.46545H337.409C340.61 3.46545 343.681 3.8857 346.623 4.72619C349.597 5.53436 352.377 6.69811 354.963 8.21747C357.549 9.73682 359.893 11.5633 361.994 13.6968C364.095 15.7981 365.905 18.1417 367.425 20.7279C368.944 23.2817 370.108 26.0456 370.916 29.0196C371.756 31.9614 372.177 35.0324 372.177 38.2327ZM358.26 38.2327C358.26 35.3557 357.711 32.6564 356.611 30.1349C355.545 27.6134 354.058 25.4152 352.15 23.5403C350.275 21.633 348.061 20.1298 345.507 19.0307C342.986 17.9316 340.287 17.3821 337.409 17.3821H330.475V59.0834H337.409C340.287 59.0834 342.986 58.55 345.507 57.4832C348.061 56.3841 350.275 54.8971 352.15 53.0222C354.058 51.1149 355.545 48.9005 356.611 46.379C357.711 43.8252 358.26 41.1098 358.26 38.2327Z" fill="#FF7300"/>
<path d="M107.327 46.573C107.327 50.4522 106.632 54.0728 105.242 57.4347C103.852 60.7644 101.96 63.6576 99.5683 66.1144C97.1761 68.5389 94.3637 70.4624 91.1311 71.8847C87.9307 73.2748 84.4879 73.9698 80.8027 73.9698C77.1498 73.9698 73.707 73.2748 70.4744 71.8847C67.274 70.4624 64.4616 68.5389 62.0371 66.1144C59.6449 63.6576 57.7538 60.7644 56.3638 57.4347C54.9737 54.0728 54.2787 50.4522 54.2787 46.573C54.2787 42.6291 54.9737 38.9762 56.3638 35.6143C57.7538 32.2523 59.6449 29.3591 62.0371 26.9346C64.4616 24.4778 67.274 22.5543 70.4744 21.1643C73.707 19.7742 77.1498 19.0792 80.8027 19.0792C84.4879 19.0792 87.9307 19.7419 91.1311 21.0673C94.3637 22.3604 97.1761 24.2191 99.5683 26.6436C101.96 29.0358 103.852 31.929 105.242 35.3233C106.632 38.6853 107.327 42.4352 107.327 46.573ZM93.992 46.573C93.992 44.4394 93.6364 42.516 92.9252 40.8027C92.2463 39.0571 91.3089 37.57 90.1128 36.3416C88.9167 35.0809 87.5105 34.1272 85.8942 33.4807C84.3102 32.8019 82.613 32.4624 80.8027 32.4624C78.9924 32.4624 77.2791 32.8019 75.6628 33.4807C74.0788 34.1272 72.6887 35.0809 71.4926 36.3416C70.3289 37.57 69.4076 39.0571 68.7287 40.8027C68.0499 42.516 67.7104 44.4394 67.7104 46.573C67.7104 48.5772 68.0499 50.436 68.7287 52.1493C69.4076 53.8626 70.3289 55.3497 71.4926 56.6104C72.6887 57.8711 74.0788 58.8733 75.6628 59.6168C77.2791 60.328 78.9924 60.6836 80.8027 60.6836C82.613 60.6836 84.3102 60.3441 85.8942 59.6653C87.5105 58.9864 88.9167 58.0328 90.1128 56.8044C91.3089 55.576 92.2463 54.0889 92.9252 52.3433C93.6364 50.5977 93.992 48.6742 93.992 46.573ZM119.942 73H106.704V21.0673H109.904L114.269 26.1102C116.402 24.1706 118.81 22.6836 121.494 21.6492C124.209 20.5824 127.038 20.049 129.979 20.049C133.147 20.049 136.137 20.6632 138.95 21.8916C141.762 23.0877 144.219 24.7525 146.32 26.8861C148.422 28.9873 150.07 31.4603 151.266 34.305C152.495 37.1175 153.109 40.1238 153.109 43.3242V73H139.871V43.3242C139.871 41.9665 139.613 40.6895 139.095 39.4935C138.578 38.2651 137.867 37.1983 136.962 36.2931C136.057 35.388 135.006 34.6768 133.81 34.1596C132.614 33.6423 131.337 33.3837 129.979 33.3837C128.589 33.3837 127.28 33.6423 126.052 34.1596C124.823 34.6768 123.756 35.388 122.851 36.2931C121.946 37.1983 121.235 38.2651 120.718 39.4935C120.2 40.6895 119.942 41.9665 119.942 43.3242V73ZM183.132 73H152.874V59.8107H183.132C184.037 59.8107 184.813 59.4875 185.459 58.8409C186.106 58.1944 186.429 57.4186 186.429 56.5134C186.429 55.576 186.106 54.9617 185.459 54.6708C184.813 54.3799 184.037 54.2344 183.132 54.2344H169.361C167.066 54.2344 164.916 53.798 162.912 52.9252C160.907 52.0524 159.162 50.8724 157.675 49.3854C156.188 47.8661 155.008 46.1043 154.135 44.1C153.294 42.0958 152.874 39.946 152.874 37.6508C152.874 35.3557 153.294 33.2059 154.135 31.2017C155.008 29.1974 156.188 27.4518 157.675 25.9648C159.162 24.4778 160.907 23.314 162.912 22.4735C164.916 21.6007 167.066 21.1643 169.361 21.1643H196.176V34.3535H169.361C168.456 34.3535 167.68 34.6768 167.033 35.3233C166.387 35.9699 166.064 36.7457 166.064 37.6508C166.064 38.5883 166.387 39.3965 167.033 40.0753C167.68 40.7219 168.456 41.0451 169.361 41.0451H183.132C185.395 41.0451 187.528 41.4331 189.533 42.2089C191.537 42.9524 193.283 44.003 194.77 45.3607C196.257 46.7185 197.436 48.351 198.309 50.2582C199.182 52.1655 199.619 54.2506 199.619 56.5134C199.619 58.8086 199.182 60.9583 198.309 62.9626C197.436 64.9345 196.257 66.6801 194.77 68.1995C193.283 69.6865 191.537 70.8664 189.533 71.7393C187.528 72.5798 185.395 73 183.132 73ZM224.793 73C221.592 73 218.586 72.402 215.773 71.2059C212.961 69.9775 210.488 68.3126 208.354 66.2114C206.253 64.0779 204.588 61.6049 203.36 58.7925C202.164 55.98 201.566 52.9737 201.566 49.7733V34.3535H195.117V21.1643H201.566V0.410589H214.755V21.1643H234.83V34.3535H214.755V49.7733C214.755 51.1634 215.014 52.4726 215.531 53.701C216.048 54.8971 216.759 55.9477 217.665 56.8529C218.57 57.758 219.636 58.4854 220.865 59.0349C222.093 59.5521 223.403 59.8107 224.793 59.8107H234.83V73H224.793ZM247.591 73H234.353V21.0673H237.553L241.917 27.2255C244.051 25.2859 246.475 23.7989 249.191 22.7644C251.906 21.6977 254.719 21.1643 257.628 21.1643H269.314V34.3535H257.628C256.238 34.3535 254.929 34.6121 253.7 35.1294C252.472 35.6466 251.405 36.3578 250.5 37.2629C249.595 38.1681 248.884 39.2349 248.366 40.4633C247.849 41.6917 247.591 43.0009 247.591 44.3909V73ZM305.301 66.9388C304.235 67.9086 303.087 68.8299 301.859 69.7027C300.662 70.5432 299.402 71.2867 298.076 71.9332C296.751 72.5474 295.377 73.0323 293.955 73.3879C292.565 73.7758 291.142 73.9698 289.688 73.9698C286.487 73.9698 283.481 73.4041 280.668 72.2727C277.856 71.1412 275.383 69.5411 273.25 67.4721C271.148 65.3709 269.483 62.8333 268.255 59.8592C267.059 56.8529 266.461 53.4909 266.461 49.7733V21.0673H279.65V49.7733C279.65 51.519 279.909 53.0868 280.426 54.4769C280.976 55.8346 281.703 56.9822 282.608 57.9196C283.513 58.8571 284.564 59.5683 285.76 60.0532C286.988 60.5381 288.298 60.7805 289.688 60.7805C291.045 60.7805 292.322 60.4734 293.518 59.8592C294.747 59.2127 295.813 58.3722 296.719 57.3378C297.624 56.3033 298.335 55.1395 298.852 53.8465C299.369 52.5211 299.628 51.1634 299.628 49.7733V21.0673H312.866V73H309.665L305.301 66.9388ZM392.744 60.2956C393.261 60.4573 393.779 60.5704 394.296 60.6351C394.813 60.6674 395.33 60.6836 395.848 60.6836C397.141 60.6836 398.385 60.5058 399.581 60.1502C400.777 59.7946 401.893 59.2935 402.927 58.647C403.994 57.9681 404.931 57.16 405.739 56.2225C406.58 55.2527 407.259 54.1859 407.776 53.0222L417.474 62.7686C416.246 64.5143 414.823 66.0821 413.207 67.4721C411.623 68.8622 409.893 70.0421 408.019 71.0119C406.176 71.9817 404.22 72.7091 402.151 73.194C400.115 73.7112 398.013 73.9698 395.848 73.9698C392.195 73.9698 388.752 73.2909 385.519 71.9332C382.319 70.5755 379.506 68.6844 377.082 66.2599C374.69 63.8354 372.799 60.9583 371.409 57.6287C370.019 54.2667 369.324 50.5815 369.324 46.573C369.324 42.4675 370.019 38.7176 371.409 35.3233C372.799 31.929 374.69 29.0358 377.082 26.6436C379.506 24.2515 382.319 22.3927 385.519 21.0673C388.752 19.7419 392.195 19.0792 395.848 19.0792C398.013 19.0792 400.131 19.3378 402.2 19.855C404.269 20.3723 406.224 21.1158 408.067 22.0856C409.942 23.0554 411.688 24.2515 413.304 25.6738C414.92 27.0639 416.343 28.6317 417.571 30.3774L392.744 60.2956ZM399.533 32.9958C398.919 32.7695 398.304 32.6241 397.69 32.5594C397.108 32.4948 396.494 32.4624 395.848 32.4624C394.037 32.4624 392.324 32.8019 390.708 33.4807C389.124 34.1272 387.734 35.0647 386.537 36.2931C385.374 37.5215 384.452 39.0086 383.774 40.7542C383.095 42.4675 382.755 44.4071 382.755 46.573C382.755 47.0579 382.771 47.6074 382.804 48.2217C382.868 48.8359 382.949 49.4662 383.046 50.1128C383.176 50.727 383.321 51.325 383.483 51.9069C383.644 52.4888 383.854 53.006 384.113 53.4586L399.533 32.9958ZM461.317 31.3956L451.619 41.1421C451.134 39.7844 450.471 38.5722 449.631 37.5054C448.79 36.4063 447.836 35.485 446.77 34.7415C445.735 33.9979 444.604 33.4322 443.375 33.0443C442.147 32.6564 440.886 32.4624 439.593 32.4624C437.783 32.4624 436.07 32.8342 434.453 33.5777C432.869 34.3212 431.479 35.3718 430.283 36.7295C429.119 38.0549 428.198 39.6389 427.519 41.4816C426.84 43.3242 426.501 45.3607 426.501 47.5913C426.501 49.4016 426.84 51.0987 427.519 52.6827C428.198 54.2667 429.119 55.6568 430.283 56.8529C431.479 58.0489 432.869 58.9864 434.453 59.6653C436.07 60.3441 437.783 60.6836 439.593 60.6836C440.886 60.6836 442.131 60.5058 443.327 60.1502C444.523 59.7946 445.638 59.2935 446.673 58.647C447.74 57.9681 448.677 57.16 449.485 56.2225C450.326 55.2527 451.005 54.1859 451.522 53.0222L461.22 62.7686C459.991 64.5143 458.569 66.0821 456.953 67.4721C455.369 68.8622 453.639 70.0421 451.764 71.0119C449.922 71.9817 447.966 72.7091 445.897 73.194C443.86 73.7112 441.759 73.9698 439.593 73.9698C435.94 73.9698 432.498 73.2909 429.265 71.9332C426.065 70.5432 423.252 68.6521 420.828 66.2599C418.435 63.8677 416.544 61.0715 415.154 57.8711C413.764 54.6708 413.069 51.2442 413.069 47.5913C413.069 43.6151 413.764 39.8975 415.154 36.4386C416.544 32.9797 418.435 29.9733 420.828 27.4195C423.252 24.8333 426.065 22.7968 429.265 21.3097C432.498 19.8227 435.94 19.0792 439.593 19.0792C441.759 19.0792 443.876 19.354 445.945 19.9035C448.047 20.4531 450.035 21.2613 451.91 22.328C453.817 23.3625 455.563 24.6394 457.147 26.1587C458.763 27.6781 460.153 29.4237 461.317 31.3956ZM509.281 46.573C509.281 50.4522 508.586 54.0728 507.196 57.4347C505.806 60.7644 503.915 63.6576 501.523 66.1144C499.13 68.5389 496.318 70.4624 493.085 71.8847C489.885 73.2748 486.442 73.9698 482.757 73.9698C479.104 73.9698 475.661 73.2748 472.429 71.8847C469.228 70.4624 466.416 68.5389 463.991 66.1144C461.599 63.6576 459.708 60.7644 458.318 57.4347C456.928 54.0728 456.233 50.4522 456.233 46.573C456.233 42.6291 456.928 38.9762 458.318 35.6143C459.708 32.2523 461.599 29.3591 463.991 26.9346C466.416 24.4778 469.228 22.5543 472.429 21.1643C475.661 19.7742 479.104 19.0792 482.757 19.0792C486.442 19.0792 489.885 19.7419 493.085 21.0673C496.318 22.3604 499.13 24.2191 501.523 26.6436C503.915 29.0358 505.806 31.929 507.196 35.3233C508.586 38.6853 509.281 42.4352 509.281 46.573ZM495.946 46.573C495.946 44.4394 495.591 42.516 494.879 40.8027C494.201 39.0571 493.263 37.57 492.067 36.3416C490.871 35.0809 489.465 34.1272 487.848 33.4807C486.264 32.8019 484.567 32.4624 482.757 32.4624C480.947 32.4624 479.233 32.8019 477.617 33.4807C476.033 34.1272 474.643 35.0809 473.447 36.3416C472.283 37.57 471.362 39.0571 470.683 40.8027C470.004 42.516 469.665 44.4394 469.665 46.573C469.665 48.5772 470.004 50.436 470.683 52.1493C471.362 53.8626 472.283 55.3497 473.447 56.6104C474.643 57.8711 476.033 58.8733 477.617 59.6168C479.233 60.328 480.947 60.6836 482.757 60.6836C484.567 60.6836 486.264 60.3441 487.848 59.6653C489.465 58.9864 490.871 58.0328 492.067 56.8044C493.263 55.576 494.201 54.0889 494.879 52.3433C495.591 50.5977 495.946 48.6742 495.946 46.573ZM521.896 73H508.658V21.0673H511.859L516.223 27.2255C518.356 25.2859 520.781 23.7989 523.496 22.7644C526.212 21.6977 529.024 21.1643 531.934 21.1643H543.62V34.3535H531.934C530.543 34.3535 529.234 34.6121 528.006 35.1294C526.777 35.6466 525.711 36.3578 524.806 37.2629C523.9 38.1681 523.189 39.2349 522.672 40.4633C522.155 41.6917 521.896 43.0009 521.896 44.3909V73Z" fill="black"/>
</svg>
