<svg width="31" height="31" viewBox="0 0 31 31" fill="none" xmlns="http://www.w3.org/2000/svg">
<path d="M23.6543 14.0441C23.1828 13.45 22.537 12.7705 21.5631 12.1893V12.0498C21.5644 9.20555 20.9392 7.11046 20.9121 7.02263C20.8475 6.81209 20.6821 6.64805 20.4703 6.58863C20.4238 6.57571 19.8606 6.41684 18.9849 6.25925V3.21092H19.9239C20.2804 3.21092 20.5698 2.92159 20.5698 2.56509C20.5698 2.20859 20.2804 1.91925 19.9239 1.91925H18.4644C18.0588 1.76167 16.7555 1.2915 15.6149 1.2915C14.0766 1.2915 12.4813 1.93992 12.4142 1.96705C12.1713 2.0665 12.0138 2.30288 12.0138 2.5638V6.25796C11.1393 6.41555 10.5748 6.57313 10.5283 6.58605C10.3165 6.64546 10.1499 6.8108 10.0866 7.02134C10.0595 7.10917 9.43431 9.22621 9.43431 12.0459V12.1867C8.46039 12.768 7.81585 13.4474 7.34439 14.0415C5.87189 15.8964 5.24414 18.2175 5.24414 21.8045C5.24414 25.3914 6.36918 27.6932 6.41697 27.7888C6.48802 27.9308 6.60814 28.0419 6.75668 28.1013C6.92202 28.1672 10.8487 29.7056 15.5 29.7056C20.1513 29.7056 24.0779 28.1672 24.2433 28.1013C24.3892 28.0432 24.5106 27.9321 24.5817 27.7913C24.6295 27.6958 25.7558 25.4185 25.7558 21.8045C25.7558 18.2175 25.1281 15.8964 23.6556 14.0415L23.6543 14.0441ZM13.3067 3.01717C13.8182 2.84538 14.7443 2.58317 15.6149 2.58317C16.3396 2.58317 17.2024 2.8415 17.6932 3.0133V6.06809C17.028 5.99059 16.2814 5.93505 15.5 5.93505C14.7185 5.93505 13.9719 5.99059 13.3067 6.06809V3.01717ZM11.2336 7.74209C11.9427 7.57417 13.6335 7.22671 15.5013 7.22671C17.369 7.22671 19.0624 7.57546 19.7689 7.74209C19.9226 8.36725 20.2197 9.78938 20.2675 11.5641C19.0766 11.1095 17.5318 10.8046 15.5013 10.8046C13.4708 10.8046 11.9259 11.1095 10.735 11.5641C10.7828 9.801 11.0812 8.37242 11.2336 7.74209ZM23.5264 26.9931C22.6196 27.3173 19.2742 28.4178 15.5013 28.4178C11.7283 28.4178 8.38677 27.3186 7.47743 26.9931C7.2191 26.3666 6.5371 24.464 6.5371 21.807C6.5371 18.5365 7.08218 16.4544 8.35706 14.8475C9.3736 13.5662 11.1031 12.0976 15.5 12.0976C19.8968 12.0976 21.6264 13.5675 22.6429 14.8475C23.9178 16.4544 24.4629 18.5365 24.4629 21.807C24.4629 24.4821 23.7834 26.3718 23.5238 26.9931H23.5264Z" fill="black"/>
<path d="M15.5002 16.2296C12.9001 16.2296 12.0773 16.8251 11.6149 17.4076C11.3372 17.7577 10.6875 18.5753 10.6875 21.8058C10.6875 22.2759 10.7172 22.7564 10.7779 23.2331C10.8115 23.503 11.0117 23.7226 11.2778 23.782C12.7555 24.1127 14.175 24.2806 15.5002 24.2806C16.8255 24.2806 18.2476 24.1127 19.724 23.782C19.9888 23.7226 20.1877 23.5043 20.2239 23.2343C20.2833 22.7732 20.313 22.2914 20.313 21.8045C20.313 18.9383 19.817 17.9488 19.3882 17.4089C18.9257 16.8251 18.103 16.2271 15.5002 16.2271V16.2296ZM18.989 22.6195C16.5478 23.1129 14.4566 23.1116 12.014 22.6195C11.9921 22.365 11.9805 22.0925 11.9805 21.8058C11.9805 19.9613 12.1987 18.751 12.6276 18.2098C12.7619 18.0393 13.1753 17.52 15.5015 17.52C17.8278 17.52 18.2399 18.0393 18.3768 18.2123C18.8056 18.7497 19.0226 19.9587 19.0226 21.8045C19.0226 22.0796 19.011 22.3521 18.9916 22.6182L18.989 22.6195Z" fill="black"/>
</svg>
