<svg width="15" height="15" viewBox="0 0 15 15" fill="none" xmlns="http://www.w3.org/2000/svg">
<g clip-path="url(#clip0_114_372)">
<path d="M11.875 3.74375V3.4375C11.875 1.54188 10.3325 0 8.4375 0H6.5625C4.6675 0 3.125 1.54188 3.125 3.4375V3.74375C1.16875 5.02 0 7.1575 0 9.49813V14.6875C0 14.86 0.14 15 0.3125 15C0.485 15 0.625 14.86 0.625 14.6875V9.49813C0.625 7.51125 1.555 5.68937 3.125 4.51062V9.375C3.125 11.7869 5.08813 13.75 7.5 13.75C9.91187 13.75 11.875 11.7869 11.875 9.375V4.51062C13.445 5.68937 14.375 7.51187 14.375 9.49813V14.6875C14.375 14.86 14.515 15 14.6875 15C14.86 15 15 14.86 15 14.6875V9.49813C15 7.1575 13.8313 5.02062 11.875 3.74375ZM11.25 9.375C11.25 11.4431 9.56812 13.125 7.5 13.125C5.43188 13.125 3.75 11.4431 3.75 9.375V3.4375C3.75 1.88688 5.01188 0.625 6.5625 0.625H8.4375C9.98812 0.625 11.25 1.88688 11.25 3.4375V9.375ZM10.1163 9.085L8.90187 8.59875L8.41562 7.38437C8.32187 7.14687 7.93 7.14687 7.83562 7.38437L7.35063 8.59562L6.14 9.05375C6.02063 9.09875 5.94063 9.2125 5.93813 9.34062C5.93563 9.46812 6.01125 9.58438 6.12937 9.63437L7.34812 10.1481L7.83562 11.3656C7.8825 11.4844 7.99813 11.5619 8.12563 11.5619C8.25313 11.5619 8.36875 11.4844 8.41562 11.3656L8.90187 10.1513L10.1163 9.665C10.235 9.61812 10.3125 9.5025 10.3125 9.375C10.3125 9.2475 10.235 9.13188 10.1163 9.085ZM8.545 9.62125C8.46562 9.65312 8.4025 9.71562 8.37125 9.795L8.125 10.4087L7.87875 9.795C7.84812 9.7175 7.7875 9.655 7.71 9.62313L7.09063 9.36188L7.69938 9.13188C7.78125 9.10063 7.84625 9.03688 7.87875 8.95563L8.125 8.34188L8.37125 8.95563C8.40312 9.035 8.46562 9.09813 8.545 9.12938L9.15875 9.37563L8.545 9.62188V9.62125ZM6.585 5.74125C6.63188 5.86 6.7475 5.9375 6.875 5.9375C7.0025 5.9375 7.11812 5.85938 7.165 5.74125L7.56187 4.75L8.55375 4.35313C8.6725 4.30562 8.75 4.19063 8.75 4.06313C8.75 3.93563 8.6725 3.82063 8.55375 3.77313L7.56187 3.37625L7.165 2.385C7.07125 2.1475 6.67938 2.1475 6.585 2.385L6.18937 3.37375L5.20187 3.7475C5.0825 3.79312 5.0025 3.90625 5 4.03375C4.9975 4.16125 5.07312 4.27812 5.19125 4.3275L6.1875 4.74687L6.585 5.74125ZM6.53938 3.90812C6.62125 3.87687 6.68625 3.81313 6.71875 3.73188L6.875 3.34188L7.03125 3.73188C7.06313 3.81125 7.12563 3.87438 7.205 3.90625L7.59562 4.0625L7.205 4.21875C7.12563 4.25063 7.0625 4.31375 7.03125 4.39313L6.875 4.78312L6.71875 4.39313C6.68813 4.31562 6.6275 4.25375 6.55 4.22125L6.15375 4.05438L6.53875 3.90875L6.53938 3.90812Z" fill="black"/>
</g>
<defs>
<clipPath id="clip0_114_372">
<rect width="15" height="15" fill="white"/>
</clipPath>
</defs>
</svg>
