<svg width="24" height="24" viewBox="0 0 24 24" fill="none" xmlns="http://www.w3.org/2000/svg">
<path d="M21.1615 10.217C20.6095 10.235 20.1755 10.696 20.1935 11.248C20.2035 11.579 20.2095 11.917 20.2095 12.262C20.2095 12.79 20.1965 13.326 20.1705 13.862C17.1895 14.185 15.0325 14.804 14.9375 14.832C14.6095 14.927 14.3525 15.184 14.2565 15.512C14.2285 15.607 13.6085 17.757 13.3005 20.958C12.7845 20.986 12.2765 21.001 11.7835 21.001C8.45052 21.001 5.44952 20.355 4.26052 20.062C3.97652 18.894 3.35652 15.928 3.35652 12.264C3.35652 8.62598 3.97752 5.64098 4.26152 4.46598C5.45052 4.17298 8.44952 3.52698 11.7835 3.52698L12.2265 3.53098C12.7605 3.53598 13.2335 3.09898 13.2425 2.54698C13.2515 1.99498 12.8105 1.53998 12.2585 1.53098L11.7835 1.52698C7.20852 1.52498 3.32252 2.63698 3.15952 2.68498C2.83152 2.77998 2.57452 3.03698 2.47852 3.36498C2.43252 3.52198 1.35352 7.26698 1.35352 12.263C1.35352 17.302 2.43352 21.009 2.47852 21.164C2.57552 21.491 2.83152 21.746 3.15852 21.84C3.32152 21.887 7.19752 23 11.7805 23C12.5955 23 13.4455 22.964 14.3045 22.893C14.5465 22.873 14.7715 22.766 14.9405 22.592L21.8345 15.472C21.9975 15.304 22.0965 15.083 22.1135 14.849C22.1765 13.986 22.2085 13.116 22.2085 12.263C22.2085 11.897 22.2035 11.538 22.1915 11.186C22.1735 10.633 21.7175 10.197 21.1605 10.218L21.1615 10.217ZM18.4215 16.122L15.5505 19.088C15.7235 17.983 15.9125 17.125 16.0365 16.611C16.5425 16.486 17.3765 16.298 18.4215 16.122Z" fill="black"/>
<path d="M22.6374 4.35403C22.6184 4.21503 22.4304 2.97503 21.5394 2.08003C20.6474 1.21203 19.4014 1.02703 19.2624 1.00903C19.0294 0.980025 18.7954 1.03103 18.5984 1.15503C18.5104 1.21103 16.3974 2.56502 12.0864 6.83203C7.54939 11.323 6.33439 13.113 6.28539 13.187C6.19539 13.322 6.13939 13.476 6.12239 13.637L5.80839 16.587C5.77639 16.887 5.88139 17.186 6.09539 17.399C6.28339 17.588 6.53839 17.692 6.80339 17.692C6.83839 17.692 6.87239 17.69 6.90739 17.687L9.88839 17.375C10.0474 17.358 10.1994 17.304 10.3324 17.217C10.4074 17.168 12.2144 15.966 16.7514 11.475C21.0624 7.20703 22.4314 5.11503 22.4874 5.02803C22.6164 4.82803 22.6694 4.58903 22.6384 4.35303L22.6374 4.35403ZM15.3434 10.054C11.7814 13.579 9.96439 15.008 9.41639 15.414L7.92639 15.57L8.08139 14.116C8.49839 13.567 9.94339 11.767 13.4934 8.25402C16.6774 5.10203 18.6164 3.59903 19.3414 3.07303C19.5914 3.15103 19.9144 3.28803 20.1334 3.50103C20.3484 3.71803 20.4884 4.02803 20.5694 4.27603C20.0304 5.00303 18.5114 6.91803 15.3434 10.054Z" fill="black"/>
</svg>
