<svg width="20" height="20" viewBox="0 0 20 20" fill="none" xmlns="http://www.w3.org/2000/svg">
<path d="M10.2336 9.91718C13.0421 9.90085 14.5541 8.38418 14.6062 5.5064C14.558 2.73751 12.9643 1.13996 10.2242 1.12207C7.45456 1.13918 5.85156 2.80985 5.85156 5.5064C5.85156 8.28385 7.45534 9.90163 10.2336 9.91796V9.91718ZM10.2242 2.67685C12.1197 2.68929 13.0172 3.59696 13.0507 5.50485C13.0141 7.49518 12.1695 8.34918 10.2336 8.36085C8.29301 8.34918 7.44756 7.49907 7.40712 5.51885C7.44601 3.56585 8.3179 2.68851 10.2242 2.67685Z" fill="white"/>
<path d="M10.2241 10.9687C6.08008 10.9951 3.85019 13.2328 3.77552 17.4414C3.76774 17.8707 4.10996 18.2254 4.5393 18.2331C4.94063 18.2184 5.32252 17.8987 5.33108 17.4694C5.39019 14.1164 6.94885 12.5452 10.2241 12.525C13.4659 12.546 15.0696 14.163 15.1272 17.4686C15.135 17.8932 15.4819 18.2331 15.905 18.2331H15.919C16.3483 18.2254 16.6905 17.8715 16.6835 17.4421C16.612 13.2942 14.3222 10.9959 10.2249 10.9695L10.2241 10.9687Z" fill="white"/>
</svg>
