<svg width="31" height="41" viewBox="0 0 31 41" fill="none" xmlns="http://www.w3.org/2000/svg">
<path d="M27.4318 28.4296C24.5891 32.1725 20.8443 34.0909 16.8142 31.591C12.9942 29.0725 12.6689 23.0059 16.5643 20.3984C19.6607 18.3258 24.159 18.7658 26.3495 22.1774C27.6994 24.2797 28.1471 24.5575 28.5856 24.7303C29.1384 24.9988 31.7137 24.788 30.5765 22.1207C28.7073 17.7368 25.6418 16.1803 24.2853 15.5889C23.382 15.1952 21.5816 14.8325 19.0554 15.073C18.5854 15.1178 18.4888 15.023 18.4127 14.9484L18.4093 14.9451L18.4089 14.9447C18.3874 14.9236 18.1922 14.7327 18.4118 14.3789C19.2608 13.0112 21.5508 9.68341 22.2981 8.67617C23.0543 7.65698 24.9238 5.2699 25.4 4.27555C26.0351 2.94969 24.6678 -0.0319458 21.9878 2.77894C18.793 6.12978 15.1817 10.7519 13.8331 13.4457C13.5694 13.9725 13.3918 14.4369 13.1233 14.9897C12.4953 15.9974 11.8243 15.5847 12.2092 14.2242C13.4986 9.66649 17.2516 4.83004 17.8538 3.88531C18.7828 2.42773 18.9277 1.67431 18.4613 1.18663C17.8671 0.565234 16.6138 0.63369 16.019 1.08537C14.8624 1.96359 12.35 4.81673 10.2564 8.89542C8.1628 12.9741 7.65799 14.2038 7.27524 14.6609C6.80609 15.3372 6.61751 14.4017 6.83954 13.324C7.09826 12.0683 7.90045 8.57499 10.7339 4.72704C12.1589 2.79189 10.0725 2.03482 9.00131 3.08178C7.88855 4.16943 0.744355 12.5938 0.707206 24.1293C0.677487 33.3576 5.8669 37.0034 8.77281 38.7564C9.85735 39.4107 14.1675 41.1356 19.1507 40.0598C26.4858 38.4762 29.9113 32.9358 30.6155 29.7348C31.0288 27.8562 30.4297 27.6353 30.0962 27.4532C29.7627 27.2711 28.4702 26.9188 27.4318 28.4296Z" fill="#FF4C00"/>
</svg>
