<svg width="528" height="639" viewBox="0 0 528 639" fill="none" xmlns="http://www.w3.org/2000/svg">
<path d="M421.957 421.7C384.484 471.04 335.12 496.328 281.997 463.373C231.641 430.175 227.354 350.205 278.703 315.833C319.519 288.512 378.815 294.312 407.69 339.284C425.484 366.997 431.386 370.659 437.167 372.936C444.453 376.476 478.401 373.697 463.41 338.537C438.771 280.748 398.362 260.231 380.48 252.435C368.573 247.245 344.841 242.464 311.54 245.635C305.345 246.225 304.071 244.975 303.068 243.992L303.023 243.948L303.018 243.943C302.734 243.666 300.161 241.149 303.056 236.485C314.247 218.456 344.434 174.589 354.285 161.312C364.253 147.877 388.897 116.411 395.175 103.303C403.546 85.8258 385.523 46.522 350.195 83.5749C308.081 127.745 260.476 188.675 242.699 224.184C239.223 231.127 236.882 237.25 233.343 244.536C225.065 257.82 216.22 252.38 221.293 234.446C238.291 174.366 287.763 110.612 295.7 98.159C307.946 78.9453 309.856 69.0138 303.709 62.5852C295.876 54.394 279.355 55.2964 271.514 61.2504C256.268 72.827 223.15 110.437 195.552 164.202C167.954 217.967 161.3 234.177 156.255 240.202C150.07 249.117 147.584 236.785 150.511 222.58C153.922 206.027 164.496 159.978 201.846 109.255C220.63 83.7457 193.127 73.766 179.008 87.567C164.339 101.904 70.1648 212.954 69.6751 365.013C69.2834 486.661 137.69 534.719 175.995 557.827C190.292 566.452 247.108 589.19 312.796 575.008C409.486 554.134 454.642 481.101 463.924 438.906C469.372 414.141 461.475 411.23 457.079 408.83C452.682 406.429 435.645 401.785 421.957 421.7Z" fill="#FF4C00"/>
<path d="M247.878 30.1228C260.402 20.613 275.643 17.4204 287.961 17.5297C300.094 17.6373 317.669 21.1055 331.31 34.9078L331.957 35.5721L332.599 36.2555C334.532 38.3464 336.229 40.5122 337.711 42.7325C346.089 36.7626 355.487 32.1894 365.937 30.1837C385.521 26.4247 403.317 32.7756 415.797 44.4691C427.08 55.0414 432.796 68.5875 435.035 80.2916C437.237 91.7984 437.007 106.444 430.425 120.187C425.41 130.656 415.284 144.851 407.646 155.279C399.727 166.092 389.657 179.233 385.674 184.602C382.18 189.311 375.827 198.312 368.699 208.618C379.349 210.561 388.559 213.32 396.098 216.606L398.307 217.583C421.948 228.187 470.23 254.877 499.364 323.208L499.363 323.208C505.094 336.648 508.404 352.165 504.743 368.032C502.742 376.702 499.001 384.005 494.317 389.994C496.391 392.799 498.283 395.967 499.877 399.533C506.88 415.203 505.406 432.261 502.097 447.303C489.989 502.345 434.664 588.684 321.044 613.214C243.627 629.927 176.709 603.904 155.807 591.295C135.128 578.82 103.128 557.775 76.6859 521.322C49.8018 484.261 30.369 433.691 30.5905 364.888C30.8611 280.85 56.9807 208.856 84.4025 156.508C111.62 104.55 141.233 69.835 151.688 59.6165C169.984 41.7336 200.07 35.7982 223.578 50.5858C224.111 50.9213 224.637 51.2685 225.158 51.6235C233.688 42.2767 241.461 34.9945 247.878 30.1219L247.878 30.1228ZM303.709 62.5854C295.876 54.3942 279.355 55.2963 271.514 61.2503C256.268 72.8271 223.15 110.437 195.553 164.202C167.955 217.966 161.301 234.177 156.255 240.202L155.967 240.604C150.184 248.473 147.784 237.316 150.252 223.906L150.512 222.58C153.922 206.027 164.496 159.978 201.847 109.254C220.63 83.7455 193.128 73.7661 179.008 87.5669C164.34 101.904 70.1653 212.954 69.6756 365.013L69.6787 367.851C70.3506 487.41 137.989 534.899 175.996 557.827C190.18 566.384 246.224 588.835 311.259 575.334L312.797 575.009C409.487 554.134 454.642 481.101 463.924 438.906C469.372 414.142 461.476 411.23 457.079 408.829C452.683 406.429 435.645 401.785 421.957 421.7C384.484 471.04 335.12 496.327 281.997 463.373C231.642 430.174 227.354 350.205 278.703 315.833C319.519 288.512 378.816 294.312 407.691 339.284C425.484 366.997 431.387 370.658 437.167 372.936C444.396 376.448 477.872 373.74 463.753 339.356L463.411 338.538C439.542 282.555 400.873 261.549 382.222 253.204L380.48 252.436C368.76 247.327 345.58 242.613 313.095 245.492L311.541 245.635C305.345 246.225 304.071 244.975 303.068 243.992L303.023 243.949L303.019 243.943C302.735 243.666 300.162 241.149 303.057 236.485C313.898 219.019 342.566 177.305 353.304 162.644L354.286 161.312C364.098 148.087 388.13 117.39 394.867 103.931L395.175 103.303C403.546 85.8256 385.523 46.5225 350.196 83.5751L348.217 85.658C306.601 129.644 260.199 189.23 242.699 224.184L242.061 225.477C238.927 231.897 236.661 237.705 233.344 244.536C225.194 257.612 216.496 252.545 221.066 235.278L221.293 234.446C238.29 174.366 287.763 110.613 295.701 98.1594C307.947 78.9457 309.857 69.014 303.709 62.5854ZM374.802 360.402C359.743 336.949 326.308 331.002 300.445 348.314C274.749 365.513 274.125 410.935 303.1 430.467C319.815 440.678 332.961 440.741 344.813 436.549C358.556 431.688 374.397 419.537 390.387 398.641C392.417 395.765 394.558 393.094 396.794 390.624C389.926 383.029 383.018 373.198 374.802 360.402ZM330.427 216.08L330.435 216.087C330.5 216.151 330.486 216.137 330.405 216.057C330.402 216.055 330.399 216.052 330.397 216.05L330.427 216.08Z" fill="white"/>
</svg>
