<svg width="112" height="41" viewBox="0 0 112 41" fill="none" xmlns="http://www.w3.org/2000/svg">
<path d="M108.583 7.05884C109.04 7.01108 109.834 7.03847 110.443 7.67309C110.966 8.21736 111.038 8.88294 111.014 9.33813L110.998 9.51977L110.997 9.53247L108.825 27.1428L108.826 27.1438C108.514 29.7111 107.721 31.8791 106.302 33.4729L106.304 33.4739C104.769 35.2114 102.216 36.0716 99.1162 36.3957C97.1833 36.5979 95.4852 36.6026 94.3223 36.1575C93.3844 35.7985 92.55 35.2948 91.9131 34.593L91.9072 34.5872C91.5877 34.2312 91.2533 33.7117 91.2031 33.0422C91.1499 32.3321 91.4362 31.7435 91.8066 31.3245L92.6641 30.343L92.6709 30.3362L92.6768 30.3293C92.9279 30.0489 93.4189 29.5887 94.1523 29.512C95.0272 29.4205 95.6395 29.9125 95.959 30.3225L96.0322 30.4094C96.186 30.5789 96.3897 30.7254 96.6719 30.8401L96.8193 30.8948L96.8418 30.9026C97.1848 31.0231 97.8809 31.1033 99.0811 30.9778L99.46 30.9241C100.317 30.7712 100.974 30.4205 101.494 29.8997L101.501 29.8918L101.509 29.885C101.811 29.5899 102.095 29.1538 102.321 28.5286C101.285 29.0953 100.111 29.4328 98.8311 29.5666C96.6146 29.7984 94.5749 29.3242 93.2861 27.6301L93.2812 27.6252C92.1084 26.0696 91.8415 24.0092 92.1191 21.7473L92.1201 21.7454L93.4961 10.6438C93.5564 10.1395 93.7478 9.57503 94.2021 9.11645C94.6645 8.64991 95.2393 8.45412 95.7588 8.39966L97.2178 8.24731C97.6751 8.19949 98.4684 8.22684 99.0781 8.86157C99.601 9.40593 99.6736 10.0713 99.6494 10.5266L99.6338 10.7083L99.6328 10.72L98.374 20.9856L98.373 20.9846C98.2422 22.0671 98.2285 22.8514 98.2881 23.3801C98.3199 23.662 98.3659 23.8079 98.3887 23.8684C98.5647 23.9812 98.9784 24.1299 99.8818 24.0354C100.474 23.9733 101.245 23.5802 102.155 22.3694L102.156 22.3684L102.319 22.1448C103.114 21.0144 103.601 19.7405 103.778 18.2981L104.86 9.45825C104.92 8.95336 105.111 8.38728 105.566 7.92798C106.029 7.46125 106.604 7.26552 107.124 7.21118L108.583 7.05884ZM36.7109 6.97876C37.1577 6.93204 37.9424 6.99288 38.4893 7.6897C38.8989 8.21205 38.9277 8.79959 38.9014 9.16235L38.8877 9.30298L38.8867 9.30688L35.8477 33.8538L35.8467 33.8528C35.7865 34.3573 35.5962 34.9233 35.1416 35.3821C34.6792 35.8486 34.1035 36.0445 33.584 36.0989L32.125 36.2512C31.6677 36.299 30.8751 36.271 30.2656 35.637C30.0621 35.4251 29.9279 35.1943 29.8398 34.9651C31.3587 33.0712 32.2472 31.0844 32.5918 29.5178L32.668 29.1379C32.8226 28.2597 32.8168 27.4535 32.5068 26.76C32.1823 26.0341 31.6135 25.6798 31.3721 25.55C31.3999 25.534 31.4294 25.5192 31.457 25.5022C32.0487 25.1366 32.5881 24.5307 32.79 23.6555C32.9582 22.9266 32.8557 22.17 32.5859 21.426L32.4609 21.1086C32.1696 20.4253 31.8498 19.8041 31.5127 19.2385L32.3994 12.095C32.4527 11.6099 32.6206 11.1661 32.8643 10.7747L32.8691 10.7668L34.3408 8.43579C34.492 8.19172 34.6633 7.94105 34.8535 7.73071C34.9505 7.62343 35.0859 7.48996 35.2578 7.36938C35.4185 7.25682 35.7139 7.08357 36.1172 7.04126L36.7109 6.97876ZM55.0186 12.6604C55.476 12.6126 56.2693 12.6399 56.8789 13.2747C57.4015 13.8189 57.4734 14.4845 57.4492 14.9397L57.4336 15.1213L57.4326 15.135L55.3701 31.8118C55.3099 32.3162 55.1185 32.8813 54.6641 33.3401C54.2016 33.8066 53.626 34.0025 53.1064 34.0569L51.6816 34.2063C51.2243 34.2541 50.4309 34.2255 49.8213 33.5911C49.7827 33.5509 49.7467 33.5094 49.7129 33.468C49.663 33.505 49.6142 33.5447 49.5635 33.5813L49.5586 33.5842C48.3129 34.4755 46.8937 34.9983 45.335 35.1614C43.1815 35.3866 41.2281 34.8734 39.9287 33.2385L39.9248 33.2336C38.7002 31.6789 38.4113 29.6077 38.6904 27.3342L38.6914 27.3323L40.0674 16.2317C40.1276 15.7273 40.3189 15.1621 40.7734 14.7034C41.2359 14.2367 41.8115 14.041 42.3311 13.9866L43.79 13.8342L43.9756 13.8206C44.442 13.8024 45.1158 13.8933 45.6494 14.4485C46.1724 14.993 46.245 15.6592 46.2207 16.1145L46.2051 16.2961L46.2041 16.3079L44.9463 26.5735L44.9453 26.5725C44.8146 27.6542 44.8019 28.4357 44.8633 28.9612C44.8968 29.2481 44.9436 29.3923 44.9658 29.4485C45.1392 29.5684 45.5304 29.7185 46.3848 29.6291C47.5535 29.5068 48.3224 28.9988 48.8613 28.054C49.5528 26.8258 50.0025 25.4471 50.1973 23.8997L51.2939 15.0715L51.3232 14.8782C51.4051 14.4224 51.6008 13.9345 52.002 13.5295C52.4645 13.0628 53.0399 12.8671 53.5596 12.8127L55.0186 12.6604ZM94.6074 34.5608C94.6856 34.5948 94.7664 34.6264 94.8486 34.6584C94.6704 34.589 94.5013 34.5156 94.3418 34.4368L94.6074 34.5608ZM33.5986 34.4885L33.7393 34.4436C33.7428 34.4422 33.7456 34.4392 33.749 34.4377C33.7018 34.4574 33.6521 34.4753 33.5986 34.4885ZM31.2881 34.2707C31.2891 34.2771 31.2918 34.2831 31.293 34.2893C31.2849 34.2471 31.2786 34.2017 31.2773 34.1526L31.2881 34.2707ZM93.6416 34.0188C93.7111 34.0693 93.7834 34.1184 93.8584 34.1663L93.6416 34.0178C93.5722 33.9674 93.5054 33.9157 93.4414 33.8625L93.6416 34.0188ZM45.1689 33.5823C44.9427 33.6059 44.724 33.6194 44.5127 33.6233C44.6185 33.6214 44.7264 33.6175 44.8359 33.6106L45.1699 33.5823C45.3323 33.5653 45.4925 33.544 45.6504 33.5178L45.1689 33.5823ZM63.2012 4.50024C63.6585 4.45243 64.4518 4.4798 65.0615 5.1145C65.5844 5.6591 65.6571 6.32527 65.6328 6.78052L65.6172 6.96118L65.6152 6.97485L65.0049 11.9202C65.8553 11.4519 66.7351 11.1429 67.6406 11.0481C70.1015 10.7907 72.2971 11.3443 73.7285 13.1477L73.9482 13.4329C75.0205 14.8794 75.6328 16.6165 75.8379 18.5774C76.177 21.8205 75.4577 24.9234 73.7314 27.842L73.7295 27.845C71.9756 30.7954 69.5668 32.6271 66.4854 32.9495C65.1068 33.0936 63.8122 33.0273 62.7305 32.5891L62.7119 32.5813C62.4887 32.4876 62.2718 32.3799 62.0596 32.262C61.9993 32.3525 61.934 32.443 61.8584 32.5286C61.4552 32.9847 60.9192 33.2403 60.3486 33.3L58.9248 33.4485C58.4675 33.4963 57.6742 33.4686 57.0645 32.8342C56.4667 32.2119 56.4568 31.4305 56.5078 30.9866L56.5098 30.9739L59.4795 6.8977C59.5397 6.39322 59.7309 5.82818 60.1855 5.36938C60.648 4.90275 61.2227 4.707 61.7422 4.65259L63.2012 4.50024ZM46.793 33.2346C46.7196 33.2592 46.6458 33.2827 46.5713 33.3049L46.793 33.2356C46.8661 33.2111 46.9387 33.1852 47.0107 33.1584L46.793 33.2346ZM47.6455 32.885C47.5766 32.9188 47.5075 32.9522 47.4375 32.9836L47.6455 32.886C47.7145 32.8522 47.7827 32.8166 47.8506 32.7805L47.6455 32.885ZM48.6348 32.2932C48.4454 32.4287 48.2513 32.5543 48.0518 32.6692L48.25 32.551C48.3807 32.4699 48.5095 32.3845 48.6357 32.2942C48.7244 32.2303 48.8092 32.163 48.8945 32.0979C48.8092 32.163 48.7235 32.2293 48.6348 32.2932ZM51.3389 32.6331C51.3299 32.6327 51.3212 32.6307 51.3125 32.6301C51.3211 32.6307 51.33 32.6337 51.3389 32.634L51.5166 32.6272L51.3389 32.6331ZM53.2744 32.3948C53.1767 32.4359 53.0661 32.4647 52.9414 32.4778L53.1221 32.4475C53.1764 32.4341 53.2266 32.4149 53.2744 32.3948ZM96.3145 32.3997C96.3893 32.426 96.4686 32.4492 96.5508 32.4709L96.3154 32.3997C96.2648 32.3827 96.2151 32.3635 96.166 32.345C96.2149 32.3635 96.264 32.3827 96.3145 32.3997ZM49.0312 31.9934C49.0976 31.9412 49.1624 31.8882 49.2266 31.8352C49.1623 31.8881 49.0976 31.9412 49.0312 31.9934ZM60.4492 31.6448C60.3694 31.6843 60.2811 31.7098 60.1836 31.72L58.7588 31.8694C58.6951 31.876 58.6358 31.8786 58.5811 31.8762L58.7598 31.8694L60.1836 31.7209L60.3262 31.6936C60.3695 31.6813 60.4101 31.6642 60.4492 31.6448ZM49.9863 31.1438C49.8147 31.3178 49.6321 31.4869 49.4404 31.6536C49.632 31.4868 49.8147 31.3178 49.9863 31.1438ZM81.291 9.91235C81.7484 9.86452 82.5416 9.89283 83.1514 10.5276C83.6742 11.0721 83.7469 11.7374 83.7227 12.1926L83.707 12.3743L83.7051 12.3879L81.6436 29.0637C81.5834 29.5683 81.3923 30.1341 80.9375 30.593C80.4751 31.0597 79.8994 31.2554 79.3799 31.3098L77.9209 31.4622C77.4635 31.5099 76.6701 31.4823 76.0605 30.8479C75.463 30.2257 75.4539 29.4442 75.5049 29.0002L75.5068 28.9866L77.5693 12.3098C77.6296 11.8054 77.8208 11.2402 78.2754 10.7815C78.7377 10.315 79.3126 10.1191 79.832 10.0647L81.291 9.91235ZM58.085 31.1682C58.0781 31.2283 58.0755 31.2847 58.0762 31.3372C58.0755 31.2847 58.079 31.2283 58.0859 31.1682L61.0547 7.09204L58.085 31.1682ZM63.5791 31.2083C63.5865 31.2106 63.5942 31.2118 63.6016 31.2141C63.5066 31.1846 63.4149 31.153 63.3271 31.1174L63.5791 31.2083ZM40.3652 30.5442C40.4117 30.7335 40.4675 30.915 40.5312 31.0891L40.4424 30.8215C40.3873 30.64 40.3404 30.4509 40.3027 30.2541L40.3652 30.5442ZM90.3096 1.37329C90.7563 1.32661 91.5392 1.38791 92.0859 2.08423C92.4958 2.60657 92.5263 3.19399 92.5 3.55688L92.4854 3.69751V3.70239L89.4453 28.2493L89.4443 28.2483C89.3841 28.7528 89.1939 29.3178 88.7393 29.7766C88.2767 30.2434 87.7013 30.439 87.1816 30.4934L85.7227 30.6458C85.2652 30.6935 84.4719 30.6661 83.8623 30.0315C83.2647 29.4092 83.2556 28.6277 83.3066 28.1838L83.3086 28.1702L85.9971 6.4895H85.998C86.0513 6.00436 86.2192 5.56065 86.4629 5.16919L86.4678 5.16235L87.9395 2.83032C88.0907 2.58629 88.262 2.33554 88.4521 2.12524C88.5492 2.01803 88.6837 1.88434 88.8555 1.76391C89.0161 1.65132 89.3121 1.47805 89.7158 1.43579L90.3096 1.37329ZM43.8623 30.5979C43.8711 30.6056 43.8807 30.6128 43.8896 30.6204L43.8633 30.5979C43.8548 30.5905 43.8471 30.5822 43.8389 30.5745C43.847 30.582 43.854 30.5906 43.8623 30.5979ZM50.8086 30.1799C50.7292 30.2892 50.6468 30.3974 50.5605 30.5041L50.8096 30.1799C50.889 30.0706 50.9646 29.9597 51.0371 29.8479L50.8086 30.1799ZM43.7324 30.4583C43.7442 30.4728 43.7554 30.4875 43.7676 30.5012C43.7554 30.4875 43.7442 30.4728 43.7324 30.4583ZM43.6562 30.3577C43.6617 30.3659 43.6683 30.3731 43.6738 30.3811C43.6637 30.3664 43.6534 30.3516 43.6436 30.3362L43.6562 30.3577ZM77.5781 29.8889C77.5631 29.8883 77.5485 29.8863 77.5342 29.885C77.5485 29.8863 77.5631 29.8893 77.5781 29.8899L77.7559 29.8831L77.5781 29.8889ZM77.082 29.1819L77.0723 29.3635C77.0735 29.4138 77.0805 29.4601 77.0889 29.5032C77.0711 29.4121 77.0679 29.3051 77.082 29.1819L79.1445 12.5051V12.5041L77.082 29.1819ZM82.1299 12.1926L80.0674 28.8694L82.1309 12.1926C82.1378 12.1323 82.1394 12.0753 82.1387 12.0227C82.1394 12.0755 82.1368 12.1321 82.1299 12.1926ZM87.3418 28.8342C87.2459 28.8736 87.138 28.9016 87.0166 28.9143L87.1973 28.884C87.2487 28.8713 87.2962 28.8529 87.3418 28.8342ZM87.8379 28.2268L87.8701 28.053V28.054C87.8631 28.1149 87.8514 28.1723 87.8379 28.2268ZM40.2656 27.5276C40.234 27.7852 40.2116 28.0352 40.1973 28.2776L40.2256 27.9084C40.2371 27.7834 40.2508 27.6564 40.2666 27.5276L41.6436 16.427V16.426L40.2656 27.5276ZM98.665 27.9875C98.5491 27.9997 98.4352 28.0094 98.3232 28.0168L98.666 27.9875C98.8384 27.9695 99.0072 27.9464 99.1729 27.9202C99.0071 27.9464 98.8376 27.9695 98.665 27.9875ZM67.3535 16.5002C66.9171 16.5461 66.2111 16.8876 65.3076 18.1838H65.3086C64.4305 19.4457 63.9411 20.6941 63.7832 21.9358L63.2139 26.511C63.3925 27.199 63.6273 27.3979 63.7256 27.4553C63.9825 27.5903 64.5646 27.728 65.6875 27.6106C66.699 27.5046 67.6766 26.8786 68.542 25.1516C69.4105 23.4045 69.7523 21.4111 69.5127 19.1194C69.4141 18.1764 69.135 17.4578 68.7275 16.9026L68.7217 16.8958C68.5419 16.648 68.2338 16.4082 67.3535 16.5002ZM72.3652 27.0344L72.6309 26.5686C72.6357 26.5597 72.6397 26.5502 72.6445 26.5413C72.5548 26.706 72.4621 26.8706 72.3652 27.0344ZM94.6992 26.8528C94.7017 26.8555 94.7046 26.8578 94.707 26.8606C94.6525 26.7992 94.6002 26.7354 94.5498 26.6692L94.6992 26.8528ZM104.357 24.5793C104.2 24.7979 104.032 25.0117 103.851 25.22L104.113 24.9045C104.198 24.7979 104.279 24.6896 104.357 24.5803V24.5793ZM103.424 23.3225C102.979 23.9137 102.522 24.3909 102.052 24.7551L102.253 24.593C102.653 24.2534 103.044 23.8303 103.425 23.3235C103.529 23.1845 103.628 23.0424 103.725 22.8997C103.628 23.0424 103.528 23.1836 103.424 23.3225ZM93.6738 24.3821C93.687 24.4791 93.7018 24.5745 93.7188 24.6682L93.6719 24.3674L93.6738 24.3821ZM52.8711 15.2522L51.8086 23.8118L52.8721 15.2522C52.8794 15.1889 52.8894 15.1289 52.9033 15.0725C52.8894 15.1289 52.8784 15.1889 52.8711 15.2522ZM64.0059 17.2776C63.755 17.6381 63.5294 18.0014 63.3291 18.3674L63.4844 18.094C63.6442 17.8204 63.8186 17.5482 64.0068 17.2776C64.0275 17.2479 64.0486 17.2188 64.0693 17.1897C64.0485 17.219 64.0266 17.2478 64.0059 17.2776ZM70.9248 17.9963C70.9162 17.9603 70.9075 17.9245 70.8984 17.8889C70.9075 17.9245 70.9163 17.9603 70.9248 17.9963ZM64.3359 16.8313C64.3039 16.8723 64.2721 16.914 64.2402 16.9563C64.2721 16.914 64.304 16.8723 64.3359 16.8313ZM64.5811 16.5295C64.5697 16.5428 64.5592 16.5571 64.5479 16.5706C64.6236 16.4808 64.6991 16.3942 64.7754 16.3118L64.5811 16.5295ZM69.7969 15.7102C69.8706 15.7893 69.9412 15.8736 70.0068 15.9641L69.8906 15.8137C69.8605 15.7778 69.8284 15.744 69.7969 15.7102ZM42.3154 15.5969C42.3037 15.5998 42.2926 15.6044 42.2812 15.6077C42.3011 15.6023 42.3211 15.5967 42.3418 15.592L42.3154 15.5969ZM65.7617 15.4573C65.6951 15.5011 65.6288 15.5478 65.5625 15.5969L65.7617 15.4583C65.8283 15.4144 65.8949 15.3728 65.9619 15.3342L65.7617 15.4573ZM73.0039 14.8645C73.0562 14.9483 73.107 15.0332 73.1562 15.1194L73.0049 14.8645C72.9525 14.7806 72.8983 14.698 72.8428 14.6165L73.0039 14.8645ZM72.4922 14.1438L72.3145 13.9338C72.3117 13.9308 72.3085 13.9281 72.3057 13.925C72.3698 13.9953 72.4324 14.0681 72.4922 14.1438ZM65.2695 13.6096C65.168 13.6752 65.0662 13.7445 64.9639 13.8166C64.8517 13.8943 64.7443 13.9749 64.6396 14.0559C64.7444 13.9748 64.8525 13.8944 64.9648 13.8166C65.1694 13.6724 65.3722 13.5413 65.5732 13.4231L65.2695 13.6096ZM34.0146 12.0696C34.0116 12.081 34.0086 12.0923 34.0059 12.1038C34.0085 12.0923 34.0116 12.081 34.0146 12.0696ZM81.4561 11.4915L81.3633 11.5012L81.457 11.4915C81.4873 11.4883 81.5167 11.4887 81.5449 11.4875L81.4561 11.4915ZM82.2705 3.54028C82.7371 3.52224 83.4109 3.6129 83.9443 4.16821C84.4674 4.71282 84.54 5.37893 84.5156 5.83423L84.5 6.01587L84.499 6.0227L84.498 6.03052L84.3115 7.52466L84.3096 7.54321C84.2405 8.04913 84.0387 8.60996 83.582 9.06274C83.121 9.51959 82.5521 9.71525 82.0312 9.76977L80.5723 9.92212C80.1203 9.96934 79.3124 9.94544 78.7012 9.29126C78.1052 8.65286 78.1184 7.86097 78.1777 7.42602L78.3594 5.96509L78.3887 5.77173C78.4705 5.31596 78.6662 4.82805 79.0674 4.42309C79.5298 3.95645 80.1055 3.76071 80.625 3.7063L82.084 3.55298L82.2705 3.54028ZM37.3115 9.11255L37.3203 8.98755L37.3193 8.98462C37.3187 9.02435 37.317 9.06732 37.3115 9.11255ZM36.876 8.55688L36.2822 8.61938L36.2559 8.6272C36.2653 8.62448 36.2743 8.62031 36.2832 8.61938L36.876 8.55786C36.9175 8.55352 36.9565 8.55267 36.9922 8.55493L36.876 8.55688ZM80.4072 8.34302C80.3438 8.34965 80.2849 8.35215 80.2305 8.34985L80.4072 8.34399L81.8662 8.19067L80.4072 8.34302ZM82.0469 8.15942L82.1689 8.12231C82.1778 8.11896 82.1857 8.11318 82.1943 8.10962C82.1478 8.12874 82.0992 8.14652 82.0469 8.15942ZM61.9072 6.23071L61.8096 6.24731C61.8414 6.2417 61.8743 6.23523 61.9082 6.23169L63.3662 6.07837L61.9072 6.23071ZM80.6104 5.31567C80.555 5.32933 80.5028 5.34676 80.4541 5.36743C80.5454 5.3287 80.6487 5.30342 80.7637 5.2893L80.6104 5.31567ZM89.8809 3.01391L89.8496 3.0227C89.8605 3.01941 89.8707 3.01596 89.8809 3.01489L90.4746 2.95239L89.8809 3.01391ZM90.6855 2.96509C90.6843 2.96472 90.6829 2.96447 90.6816 2.96411L90.5928 2.94946C90.6263 2.95173 90.6572 2.95696 90.6855 2.96509ZM87.79 28.3801C87.808 28.3352 87.8243 28.288 87.8369 28.2375L87.8379 28.2268C87.8245 28.2809 87.8092 28.3322 87.79 28.3801Z" fill="white"/>
<path d="M27.9667 27.9477C25.2012 31.5889 21.5582 33.4551 17.6377 31.0231C13.9215 28.5731 13.6051 22.6714 17.3946 20.1348C20.4068 18.1185 24.7828 18.5466 26.9138 21.8655C28.2269 23.9106 28.6625 24.1809 29.0891 24.349C29.6268 24.6101 32.1321 24.4051 31.0258 21.8103C29.2075 17.5456 26.2253 16.0314 24.9057 15.4561C24.027 15.0731 22.2755 14.7202 19.818 14.9542C19.3608 14.9977 19.2667 14.9055 19.1927 14.833L19.1895 14.8297L19.1891 14.8294C19.1682 14.8089 18.9782 14.6231 19.1919 14.2789C20.0178 12.9484 22.2455 9.71112 22.9725 8.73126C23.7082 7.73978 25.5268 5.41759 25.9901 4.45028C26.6079 3.16046 25.2778 0.259885 22.6707 2.99435C19.5627 6.2541 16.0495 10.7506 14.7376 13.3712C14.4811 13.8836 14.3083 14.3354 14.0471 14.8731C13.4362 15.8535 12.7834 15.452 13.1579 14.1285C14.4123 9.69466 18.0633 4.98969 18.649 4.07065C19.5528 2.65269 19.6937 1.91976 19.2401 1.44533C18.662 0.84083 17.4428 0.907426 16.8641 1.34682C15.739 2.20117 13.2949 4.97675 11.2582 8.94456C9.22151 12.9124 8.73042 14.1086 8.35807 14.5533C7.90168 15.2112 7.71822 14.3011 7.93422 13.2528C8.1859 12.0312 8.96629 8.63283 11.7227 4.8895C13.1089 3.00695 11.0792 2.27046 10.0372 3.28896C8.95471 4.34704 2.00474 12.5424 1.9686 23.7642C1.93969 32.7417 6.98802 36.2884 9.81493 37.9937C10.87 38.6302 15.063 40.3082 19.9107 39.2617C27.0463 37.7211 30.3788 32.3314 31.0638 29.2174C31.4658 27.3898 30.883 27.175 30.5586 26.9978C30.2342 26.8207 28.9768 26.4779 27.9667 27.9477Z" fill="white"/>
</svg>
