<svg width="32" height="32" viewBox="0 0 32 32" fill="none" xmlns="http://www.w3.org/2000/svg">
<path d="M22.6615 17.3H9.32816C8.59216 17.3 7.99482 17.896 7.99482 18.6334V23.9667C7.99482 24.704 8.59216 25.3 9.32816 25.3H22.6615C23.3975 25.3 23.9948 24.704 23.9948 23.9667V18.6334C23.9948 17.896 23.3975 17.3 22.6615 17.3ZM21.3282 22.6334H10.6615V19.9667H21.3282V22.6334ZM7.99482 13.3C7.99482 12.5627 8.59216 11.9667 9.32816 11.9667H13.3282C14.0642 11.9667 14.6615 12.5627 14.6615 13.3C14.6615 14.0374 14.0642 14.6334 13.3282 14.6334H9.32816C8.59216 14.6334 7.99482 14.0374 7.99482 13.3ZM7.99482 9.30004C7.99482 8.56271 8.59216 7.96671 9.32816 7.96671H13.3282C14.0642 7.96671 14.6615 8.56271 14.6615 9.30004C14.6615 10.0374 14.0642 10.6334 13.3282 10.6334H9.32816C8.59216 10.6334 7.99482 10.0374 7.99482 9.30004ZM28.8655 10.0067C28.8202 9.71604 28.6802 9.44937 28.4682 9.24671L20.8402 1.98937C20.6575 1.81604 20.4308 1.69737 20.1842 1.64804C19.0348 1.41604 17.6255 1.29871 15.9948 1.29871C10.5602 1.30004 5.22949 2.61737 5.00416 2.67337C4.52682 2.79204 4.15349 3.16537 4.03349 3.64404C3.97749 3.86804 2.66016 9.21471 2.66016 15.9667C2.66016 22.7187 3.97749 28.0654 4.03349 28.2894C4.15349 28.7667 4.52682 29.1414 5.00416 29.26C5.22816 29.316 10.5602 30.6334 15.9948 30.6334C21.4295 30.6334 26.7602 29.316 26.9855 29.26C27.4628 29.1414 27.8362 28.768 27.9562 28.2894C28.0122 28.0654 29.3295 22.7187 29.3295 15.9667V15.8974C29.3295 13.924 29.1775 11.996 28.8655 10.0067ZM24.6508 9.29737C23.0988 9.28271 21.7282 9.15204 20.8735 9.04537C20.7828 8.31071 20.6802 7.12004 20.6655 5.50537L24.6522 9.29871L24.6508 9.29737ZM15.9935 27.9667C12.0735 27.9667 8.09749 27.2094 6.44416 26.8534C6.09082 25.1587 5.32682 20.9187 5.32682 15.9667C5.32682 11.0147 6.09082 6.77471 6.44416 5.08004C8.09482 4.72271 12.0642 3.96671 15.9935 3.96671C16.7175 3.96671 17.3908 3.99604 18.0122 4.04671C17.9228 8.21471 18.3828 10.4174 18.4042 10.5134C18.5202 11.0414 18.9442 11.4454 19.4762 11.54C19.6015 11.5614 21.9615 11.968 24.9148 11.968C25.3935 11.968 25.9068 11.9294 26.4095 11.904C26.5628 13.2374 26.6602 14.5587 26.6602 15.8974V15.9667C26.6602 20.9187 25.8962 25.1587 25.5428 26.8534C23.8922 27.2107 19.9228 27.9667 15.9935 27.9667Z" fill="white"/>
</svg>
