<svg width="19" height="19" viewBox="0 0 19 19" fill="none" xmlns="http://www.w3.org/2000/svg">
<path d="M10.8945 4.66748C10.2411 4.66748 9.62419 4.92886 9.16989 5.39172L6.707 7.78926C6.00299 8.50572 5.58136 9.44778 5.5199 10.4427L5.44678 11.6213C5.43278 11.8445 5.5199 12.0577 5.67393 12.2203C5.91119 12.4715 6.25737 12.4474 6.2737 12.4459L7.43124 12.3712C8.41686 12.3074 9.34881 11.8764 10.0435 11.1701L12.5064 8.77255C13.4438 7.81882 13.4632 6.28788 12.5515 5.35905C12.1135 4.9133 11.5254 4.66748 10.8961 4.66748H10.8945ZM11.408 7.66946L8.94507 10.0662C8.5071 10.512 7.933 10.7796 7.33011 10.8177L7.05318 10.8356L7.07185 10.5384C7.11074 9.91764 7.37523 9.32798 7.80387 8.89157L10.2668 6.49481C10.4387 6.31978 11.0011 6.01872 11.4406 6.44891C11.7681 6.77019 11.7417 7.32873 11.408 7.66868V7.66946Z" fill="white"/>
<path d="M9.33581 0.777832C5.19185 0.777832 1.55664 4.41304 1.55664 8.557C1.55664 13.6243 8.65591 17.626 8.95774 17.794C9.07521 17.8593 9.20512 17.892 9.33581 17.892C9.4665 17.892 9.59563 17.8593 9.71387 17.794C10.0157 17.626 17.115 13.6243 17.115 8.557C17.115 4.41304 13.4798 0.777832 9.33581 0.777832ZM9.33581 16.2094C7.93322 15.3474 3.11247 12.1237 3.11247 8.557C3.11247 4.99025 6.39839 2.33367 9.33581 2.33367C12.2732 2.33367 15.5591 4.99492 15.5591 8.557C15.5591 12.1191 10.7384 15.3474 9.33581 16.2094Z" fill="white"/>
</svg>
