<svg width="32" height="32" viewBox="0 0 32 32" fill="none" xmlns="http://www.w3.org/2000/svg">
<path d="M12.6565 15.9999C17.6591 15.9999 19.9898 13.6693 19.9898 8.66658C19.9898 3.66392 17.6591 1.33325 12.6565 1.33325C7.6538 1.33325 5.32314 3.66392 5.32314 8.66658C5.32314 13.6693 7.6538 15.9999 12.6565 15.9999ZM12.6565 3.99992C16.1885 3.99992 17.3231 5.13459 17.3231 8.66658C17.3231 12.1986 16.1885 13.3333 12.6565 13.3333C9.12447 13.3333 7.9898 12.1986 7.9898 8.66658C7.9898 5.13459 9.12447 3.99992 12.6565 3.99992ZM13.3325 19.9733C13.3511 20.7093 12.7698 21.3226 12.0338 21.3413C6.32714 21.4906 4.1498 23.6666 3.99914 29.3693C3.97914 30.0933 3.3858 30.6679 2.66714 30.6679C2.6538 30.6679 2.6418 30.6679 2.63114 30.6679C1.89514 30.6479 1.3138 30.0359 1.33247 29.2999C1.52314 22.1413 4.8018 18.8653 11.9645 18.6773C12.6965 18.6559 13.3138 19.2386 13.3325 19.9746V19.9733ZM29.7725 24.8453L28.5365 24.1319C28.6138 23.6799 28.6645 23.1999 28.6645 22.6666C28.6645 22.1333 28.6138 21.6533 28.5365 21.2013L29.7725 20.4879C30.4111 20.1199 30.6285 19.3039 30.2605 18.6666C29.8911 18.0239 29.0645 17.8133 28.4391 18.1786L27.4285 18.7613C26.7725 18.0559 25.8565 17.6106 24.6658 17.4306V15.9986C24.6658 15.2626 24.0685 14.6653 23.3325 14.6653C22.5965 14.6653 21.9991 15.2626 21.9991 15.9986V17.4306C20.8085 17.6106 19.8925 18.0559 19.2365 18.7613L18.2258 18.1786C17.6005 17.8133 16.7738 18.0226 16.4045 18.6666C16.0365 19.3039 16.2538 20.1199 16.8925 20.4879L18.1285 21.2013C18.0511 21.6533 18.0005 22.1333 18.0005 22.6666C18.0005 23.1999 18.0511 23.6799 18.1285 24.1319L16.8925 24.8453C16.2538 25.2133 16.0365 26.0293 16.4045 26.6666C16.7738 27.3093 17.6005 27.5199 18.2258 27.1546L19.2365 26.5719C19.8925 27.2773 20.8085 27.7226 21.9991 27.9026V29.3346C21.9991 30.0706 22.5965 30.6679 23.3325 30.6679C24.0685 30.6679 24.6658 30.0706 24.6658 29.3346V27.9026C25.8565 27.7226 26.7725 27.2773 27.4285 26.5719L28.4391 27.1546C29.0645 27.5199 29.8911 27.3106 30.2605 26.6666C30.6285 26.0293 30.4111 25.2133 29.7725 24.8453ZM23.3325 25.3333C21.2138 25.3333 20.6658 24.7853 20.6658 22.6666C20.6658 20.5479 21.2138 19.9999 23.3325 19.9999C25.4511 19.9999 25.9991 20.5479 25.9991 22.6666C25.9991 24.7853 25.4511 25.3333 23.3325 25.3333Z" fill="white"/>
</svg>
