<svg id="Layer_1" viewBox="0 0 24 24" xmlns="http://www.w3.org/2000/svg" data-name="Layer 1"><path d="m8.865 1.374c-.07-.016-1.72-.374-3.365-.374s-3.295.358-3.365.374c-.381.083-.679.381-.762.762-.016.069-.373 1.719-.373 3.364s.357 3.295.373 3.364c.083.381.381.679.762.762.07.016 1.72.374 3.365.374s3.295-.358 3.365-.374c.381-.083.679-.381.762-.762.016-.069.373-1.719.373-3.364s-.357-3.295-.373-3.364c-.083-.381-.381-.679-.762-.762zm-1.073 6.418c-.57.093-1.441.208-2.292.208s-1.721-.115-2.292-.208c-.094-.572-.208-1.445-.208-2.292s.114-1.721.208-2.292c.57-.093 1.441-.208 2.292-.208s1.721.115 2.292.208c.094.572.208 1.445.208 2.292s-.114 1.721-.208 2.292zm5.343 1.834c.07.016 1.72.374 3.365.374s3.295-.358 3.365-.374c.381-.083.679-.381.762-.762.016-.069.373-1.719.373-3.364s-.357-3.295-.373-3.364c-.083-.381-.381-.679-.762-.762-.07-.016-1.72-.374-3.365-.374s-3.295.358-3.365.374c-.381.083-.679.381-.762.762-.016.069-.373 1.719-.373 3.364s.357 3.295.373 3.364c.083.381.381.679.762.762zm1.073-6.418c.57-.093 1.441-.208 2.292-.208s1.721.115 2.292.208c.094.572.208 1.445.208 2.292s-.114 1.721-.208 2.292c-.57.093-1.441.208-2.292.208s-1.721-.115-2.292-.208c-.094-.572-.208-1.445-.208-2.292s.114-1.721.208-2.292zm-5.344 9.165c-.069-.016-1.719-.373-3.364-.373s-3.295.357-3.364.373c-.382.083-.68.381-.763.763-.016.069-.373 1.719-.373 3.364s.357 3.295.373 3.364c.083.382.381.68.763.763.069.016 1.719.373 3.364.373s3.295-.357 3.364-.373c.382-.083.68-.381.763-.763.016-.069.373-1.719.373-3.364s-.357-3.295-.373-3.364c-.083-.381-.381-.679-.763-.763zm-1.072 6.419c-.571.094-1.445.208-2.292.208s-1.721-.114-2.292-.208c-.094-.571-.208-1.445-.208-2.292s.114-1.721.208-2.292c.571-.094 1.445-.208 2.292-.208s1.721.114 2.292.208c.094.571.208 1.445.208 2.292s-.114 1.721-.208 2.292zm14.915 2.501-2.304-2.304c.382-.681.597-1.512.597-2.489 0-2.817-1.683-4.5-4.5-4.5s-4.5 1.683-4.5 4.5 1.683 4.5 4.5 4.5c.977 0 1.808-.215 2.489-.597l2.304 2.304c.391.391 1.023.391 1.414 0s.391-1.023 0-1.414zm-8.707-4.793c0-1.706.794-2.5 2.5-2.5s2.5.794 2.5 2.5-.794 2.5-2.5 2.5-2.5-.794-2.5-2.5z"/></svg>