<svg width="35" height="35" viewBox="0 0 35 35" fill="none" xmlns="http://www.w3.org/2000/svg">
<path d="M29.9218 12.215C31.3028 8.84042 31.9532 5.60729 31.997 5.39C32.0495 5.12313 31.9488 4.84896 31.7374 4.67979C31.5726 4.54854 27.5928 1.45834 17.4997 1.45834C7.40655 1.45834 3.42676 4.55 3.26197 4.67979C3.05342 4.84604 2.95426 5.11292 2.99947 5.37542C3.03738 5.58834 3.6178 8.81854 5.02801 12.234C2.83322 13.0871 1.45801 15.0748 1.45801 17.4985C1.45801 20.879 3.91092 23.3319 7.29134 23.3319H13.4499C13.0882 25.2744 12.4903 28.9056 12.4057 32.0819H10.208C9.80551 32.0819 9.47884 32.4085 9.47884 32.811C9.47884 33.2135 9.80551 33.5402 10.208 33.5402H24.7913C25.1938 33.5402 25.5205 33.2135 25.5205 32.811C25.5205 32.4085 25.1938 32.0819 24.7913 32.0819H22.5936C22.509 28.9056 21.9126 25.2744 21.5509 23.3319H27.708C31.0884 23.3319 33.5413 20.879 33.5413 17.4985C33.5413 15.0558 32.1457 13.0565 29.9218 12.2135V12.215ZM2.91634 17.5C2.91634 15.6523 3.93717 14.1925 5.62009 13.5683C6.39301 15.1885 7.36134 16.7679 8.55426 18.006C10.1788 19.6904 11.5118 20.8017 12.9249 21.875H7.2928C4.71592 21.875 2.91634 20.0769 2.91634 17.5ZM13.864 32.0833C13.9865 27.7215 15.1372 22.3038 15.1488 22.2454C15.2101 21.9654 15.0993 21.6752 14.8688 21.506C13.078 20.1863 11.554 19.0167 9.6028 16.9925C6.4003 13.6719 4.8953 7.34271 4.5278 5.58542C5.66676 4.89271 9.61301 2.91521 17.4997 2.91521C25.3863 2.91521 29.3165 4.88542 30.4643 5.57959C30.0559 7.37917 28.4168 13.8615 25.3965 16.9925C23.4759 18.9831 21.809 20.2635 20.129 21.506C19.8986 21.6767 19.7907 21.964 19.8505 22.244C19.8622 22.3008 21.0128 27.7185 21.1353 32.0819H13.8655L13.864 32.0833ZM27.708 21.875H22.0701C23.4497 20.8221 24.8613 19.651 26.4465 18.006C27.6015 16.8088 28.5597 15.209 29.337 13.5523C31.0447 14.1663 32.0845 15.6363 32.0845 17.4985C32.0845 20.0754 30.2863 21.8735 27.7095 21.8735L27.708 21.875Z" fill="black"/>
<path d="M20.9064 15.4948C21.2082 15.12 21.3307 14.6475 21.2491 14.1663L21.1076 13.3058C21.0274 12.8173 21.1805 12.32 21.5189 11.9758L22.1241 11.3633C22.5616 10.9156 22.7103 10.2886 22.5222 9.67897C22.3312 9.07376 21.828 8.63918 21.2126 8.54585L20.3843 8.41897C19.9322 8.35189 19.5384 8.05147 19.3299 7.61689L18.9595 6.83668C18.6868 6.25772 18.1282 5.89751 17.4982 5.89751C16.8682 5.89751 16.3111 6.25626 16.037 6.83376L15.6666 7.61689C15.4595 8.05147 15.0657 8.35189 14.6136 8.42043L13.7809 8.54585C13.1655 8.63918 12.6653 9.07522 12.4743 9.68043C12.2861 10.2783 12.4407 10.9244 12.8768 11.3663L13.4805 11.9758C13.8174 12.3186 13.972 12.8173 13.8918 13.3058L13.7489 14.1633C13.6672 14.649 13.7911 15.1229 14.0945 15.4948C14.5757 16.0898 15.4318 16.2808 16.1157 15.9061L16.8624 15.4992C17.2547 15.2833 17.7432 15.2819 18.1399 15.4992L18.8807 15.9031C19.1243 16.0373 19.3824 16.1044 19.6478 16.1044C20.1261 16.1044 20.5957 15.8754 20.9064 15.4933V15.4948ZM19.6697 13.5421L19.8112 14.404C19.8228 14.474 19.8112 14.5308 19.7732 14.5775C19.7339 14.6256 19.6828 14.6475 19.6493 14.6475L18.8399 14.2202C18.0159 13.7681 16.9776 13.7711 16.1624 14.2202L15.372 14.6475C15.372 14.6475 15.2495 14.6475 15.2261 14.5746C15.2145 14.5396 15.1722 14.4958 15.1882 14.4025L15.3311 13.5421C15.4872 12.5956 15.1839 11.6273 14.5203 10.9521L13.9166 10.3425C13.8568 10.2813 13.8407 10.2069 13.8684 10.1194C13.9049 10.0042 13.9764 9.99251 14.0026 9.98814L14.8339 9.86272C15.7657 9.72126 16.5693 9.11751 16.9864 8.24397L17.3582 7.46085C17.4078 7.35731 17.4764 7.35731 17.5026 7.35731C17.5434 7.35731 17.6018 7.36751 17.6455 7.45939L18.0174 8.24543C18.4359 9.11897 19.2409 9.72272 20.1699 9.86272L20.9968 9.98814C21.0449 9.99543 21.1032 10.0173 21.1339 10.115C21.1528 10.1777 21.1601 10.2681 21.0872 10.3425L20.4834 10.9536C19.8184 11.6288 19.5137 12.5971 19.6712 13.5436L19.6697 13.5421Z" fill="black"/>
</svg>
