<svg width="16" height="16" viewBox="0 0 16 16" fill="none" xmlns="http://www.w3.org/2000/svg">
<g clip-path="url(#clip0_359_12)">
<path d="M9.53299 5.28467C9.26966 5.02667 9.26566 4.60467 9.52299 4.34201C9.78032 4.07934 10.203 4.07467 10.4657 4.33134C10.637 4.49934 10.8157 4.66134 10.9997 4.81601C11.417 4.46601 11.8043 4.07867 12.155 3.65934C12.391 3.37734 12.8117 3.34001 13.0943 3.57667C13.3763 3.81267 13.4137 4.23334 13.1777 4.51601C12.6517 5.14334 12.053 5.71067 11.3997 6.20001C11.163 6.37801 10.837 6.37801 10.5997 6.20001C10.227 5.92067 9.86832 5.61267 9.53299 5.28467ZM7.33299 4.66667C7.33299 1.90067 8.56699 0.666672 11.333 0.666672C14.099 0.666672 15.333 1.90067 15.333 4.66667C15.333 7.43267 14.099 8.66667 11.333 8.66667C8.56699 8.66667 7.33299 7.43267 7.33299 4.66667ZM8.66632 4.66667C8.66632 6.68534 9.31432 7.33334 11.333 7.33334C13.3517 7.33334 13.9997 6.68534 13.9997 4.66667C13.9997 2.64801 13.3517 2.00001 11.333 2.00001C9.31432 2.00001 8.66632 2.64801 8.66632 4.66667ZM15.3497 12.5767C15.3483 13.3287 15.1123 13.9193 14.613 14.36C13.721 15.0513 12.211 15.3333 9.40166 15.3333C7.47366 15.3333 4.91633 15.0553 3.54899 14.4353C3.02966 14.116 2.70366 13.6707 2.50366 12.976C2.20299 11.9227 2.48966 9.87867 2.76699 7.90267C2.88033 6.90067 3.05699 6.10667 3.19366 5.16467C2.18099 5.24401 1.51299 5.32734 1.50499 5.32867C1.15699 5.36934 0.833659 5.13867 0.766992 4.79401C0.716992 4.53667 0.666992 3.95267 0.666992 3.33401C0.670992 2.53534 0.926992 1.95334 1.53033 1.60401C2.51699 0.985338 4.46299 0.766672 5.97633 0.698005C6.33699 0.672005 6.65566 0.965338 6.67232 1.33401C6.68899 1.70201 6.40433 2.01334 6.03633 2.03001C5.40166 2.05867 4.85699 2.10867 4.38166 2.16934C4.56699 2.48001 4.66633 2.87001 4.66633 3.33401C4.66699 5.16267 4.27633 6.43067 4.08699 8.08801C3.86566 9.66667 3.56233 11.8287 3.78566 12.6127C3.95899 13.2267 4.20766 13.334 4.66633 13.334C5.12966 13.334 5.33299 13.2593 5.33299 12.5393C5.32899 12.124 5.25499 11.7593 5.20366 11.4327C5.17366 11.2273 5.23966 11.02 5.38366 10.8707C5.52833 10.722 5.73233 10.6473 5.93899 10.672C7.22033 10.8173 8.73499 11.0013 10.4503 11.0013C10.6623 11.0013 10.8717 10.998 11.0783 10.992C11.087 10.858 11.0897 10.7353 11.1023 10.5953C11.1343 10.2287 11.449 9.94934 11.8243 9.98934C12.191 10.0213 12.4623 10.344 12.4303 10.7113C12.4243 10.7833 12.4237 10.846 12.4183 10.9167C13.2803 10.8467 14.0097 10.7473 14.4703 10.6747C14.825 10.6213 15.1603 10.8553 15.2283 11.2073C15.2857 11.5047 15.3517 11.9287 15.3517 12.5773L15.3497 12.5767ZM3.33299 3.33334C3.33299 2.80401 3.19566 2.66667 2.66633 2.66667C2.40633 2.66667 2.21633 2.71334 2.13099 2.79934C2.04566 2.88534 1.99899 3.07401 1.99966 3.33134C1.99966 3.54734 2.00633 3.75201 2.01633 3.93001C2.35166 3.89601 2.79766 3.85534 3.32233 3.81667C3.32899 3.65934 3.33233 3.49801 3.33233 3.33267L3.33299 3.33334ZM14.0163 12.5767C14.0163 12.392 14.0097 12.2293 14.0003 12.0893C13.0817 12.21 11.7617 12.3407 10.329 12.3333C8.99366 12.3333 7.69632 12.21 6.64432 12.094C6.65766 12.2387 6.66632 12.3893 6.66632 12.5387C6.66632 13.0773 6.56033 13.4827 6.39166 13.7867C7.38433 13.928 8.47566 14 9.40166 14C11.7857 14 13.1363 13.792 13.7683 13.328C13.919 13.1747 14.0163 12.9807 14.0163 12.5767Z" fill="black"/>
</g>
<defs>
<clipPath id="clip0_359_12">
<rect width="16" height="16" fill="white"/>
</clipPath>
</defs>
</svg>
