<svg width="32" height="32" viewBox="0 0 32 32" fill="none" xmlns="http://www.w3.org/2000/svg">
<g clip-path="url(#clip0_118_304)">
<path d="M10.6667 16C15.0787 16 18.6667 12.412 18.6667 8C18.6667 3.588 15.0787 0 10.6667 0C6.25467 0 2.66667 3.588 2.66667 8C2.66667 12.412 6.25467 16 10.6667 16ZM10.6667 2.66667C13.608 2.66667 16 5.05867 16 8C16 10.9413 13.608 13.3333 10.6667 13.3333C7.72533 13.3333 5.33333 10.9413 5.33333 8C5.33333 5.05867 7.72533 2.66667 10.6667 2.66667ZM13.3333 20C13.3333 20.736 12.736 21.3333 12 21.3333C6.85333 21.3333 2.66667 25.52 2.66667 30.6667C2.66667 31.4027 2.06933 32 1.33333 32C0.597333 32 0 31.4027 0 30.6667C0 24.0507 5.384 18.6667 12 18.6667C12.736 18.6667 13.3333 19.264 13.3333 20ZM31.5253 23.6693L28.3707 26.2387L29.676 30.212C29.8547 30.7493 29.6733 31.3413 29.224 31.6867C28.7747 32.032 28.156 32.056 27.6827 31.748L24.0107 29.3573L20.4 31.7733C20.176 31.924 19.9173 31.9987 19.6587 31.9987C19.3773 31.9987 19.096 31.9093 18.8587 31.732C18.4053 31.3933 18.2173 30.804 18.3867 30.264L19.6413 26.2427L16.472 23.664C16.0453 23.3027 15.8893 22.7133 16.0827 22.188C16.276 21.6627 16.7747 21.3147 17.3333 21.3147H21.3347L22.7507 17.3413C22.9453 16.82 23.444 16.4733 24 16.4733C24.556 16.4733 25.056 16.82 25.2493 17.3413L26.6653 21.3147H30.6667C31.2267 21.3147 31.7267 21.6653 31.9187 22.1907C32.1107 22.716 31.9533 23.3067 31.5253 23.668V23.6693Z" fill="white"/>
</g>
<defs>
<clipPath id="clip0_118_304">
<rect width="32" height="32" fill="white"/>
</clipPath>
</defs>
</svg>
