<svg width="32" height="32" viewBox="0 0 32 32" fill="none" xmlns="http://www.w3.org/2000/svg">
<g clip-path="url(#clip0_365_4)">
<path d="M28 8H24C24 5.87827 23.1571 3.84344 21.6569 2.34315C20.1566 0.842855 18.1217 0 16 0C13.8783 0 11.8434 0.842855 10.3431 2.34315C8.84286 3.84344 8 5.87827 8 8H4C2.93913 8 1.92172 8.42143 1.17157 9.17157C0.421427 9.92172 0 10.9391 0 12L0 25.3333C0.00211714 27.1008 0.705176 28.7953 1.95496 30.045C3.20474 31.2948 4.89921 31.9979 6.66667 32H25.3333C27.1008 31.9979 28.7953 31.2948 30.045 30.045C31.2948 28.7953 31.9979 27.1008 32 25.3333V12C32 10.9391 31.5786 9.92172 30.8284 9.17157C30.0783 8.42143 29.0609 8 28 8ZM16 2.66667C17.4145 2.66667 18.771 3.22857 19.7712 4.22876C20.7714 5.22896 21.3333 6.58551 21.3333 8H10.6667C10.6667 6.58551 11.2286 5.22896 12.2288 4.22876C13.229 3.22857 14.5855 2.66667 16 2.66667ZM29.3333 25.3333C29.3333 26.3942 28.9119 27.4116 28.1618 28.1618C27.4116 28.9119 26.3942 29.3333 25.3333 29.3333H6.66667C5.6058 29.3333 4.58839 28.9119 3.83824 28.1618C3.08809 27.4116 2.66667 26.3942 2.66667 25.3333V12C2.66667 11.6464 2.80714 11.3072 3.05719 11.0572C3.30724 10.8071 3.64638 10.6667 4 10.6667H8V13.3333C8 13.687 8.14048 14.0261 8.39052 14.2761C8.64057 14.5262 8.97971 14.6667 9.33333 14.6667C9.68696 14.6667 10.0261 14.5262 10.2761 14.2761C10.5262 14.0261 10.6667 13.687 10.6667 13.3333V10.6667H21.3333V13.3333C21.3333 13.687 21.4738 14.0261 21.7239 14.2761C21.9739 14.5262 22.313 14.6667 22.6667 14.6667C23.0203 14.6667 23.3594 14.5262 23.6095 14.2761C23.8595 14.0261 24 13.687 24 13.3333V10.6667H28C28.3536 10.6667 28.6928 10.8071 28.9428 11.0572C29.1929 11.3072 29.3333 11.6464 29.3333 12V25.3333Z" fill="white"/>
</g>
<defs>
<clipPath id="clip0_365_4">
<rect width="32" height="32" fill="white"/>
</clipPath>
</defs>
</svg>
