<svg width="32" height="32" viewBox="0 0 32 32" fill="none" xmlns="http://www.w3.org/2000/svg">
<path d="M28 7.99996H6.66667C5.52133 7.99996 4.43733 7.50396 3.68667 6.66796C4.42 5.84929 5.48533 5.33329 6.66667 5.33329H30.6667C31.404 5.33329 32 4.73596 32 3.99996C32 3.26396 31.404 2.66663 30.6667 2.66663H6.66667C2.98533 2.66663 0 5.65196 0 9.33329V22.6666C0 26.348 2.98533 29.3333 6.66667 29.3333H28C30.2093 29.3333 32 27.5426 32 25.3333V12C32 9.79063 30.2093 7.99996 28 7.99996ZM29.3333 25.3333C29.3333 26.068 28.736 26.6666 28 26.6666H6.66667C4.46133 26.6666 2.66667 24.872 2.66667 22.6666V9.33063C3.80533 10.1826 5.20533 10.6666 6.66667 10.6666H28C28.736 10.6666 29.3333 11.2653 29.3333 12V25.3333ZM26.6667 18.6666C26.6667 19.4026 26.0693 20 25.3333 20C24.5973 20 24 19.4026 24 18.6666C24 17.9306 24.5973 17.3333 25.3333 17.3333C26.0693 17.3333 26.6667 17.9306 26.6667 18.6666Z" fill="white"/>
</svg>
