<svg width="204" height="76" viewBox="0 0 204 76" fill="none" xmlns="http://www.w3.org/2000/svg">
<path d="M199.481 12.6607C200.322 12.5728 201.779 12.6241 202.899 13.7905C203.86 14.7912 203.993 16.0145 203.948 16.8511L203.92 17.1841L203.918 17.1958V17.2075L199.929 49.5669L199.93 49.5679C199.355 54.2847 197.9 58.2684 195.293 61.1968L195.294 61.1978C192.474 64.3906 187.783 65.9703 182.087 66.5659C178.535 66.9373 175.415 66.9473 173.278 66.1294C171.555 65.4698 170.023 64.5438 168.853 63.2544L168.847 63.2485L168.842 63.2427C168.255 62.5887 167.639 61.6346 167.547 60.4048C167.449 59.1 167.976 58.0185 168.656 57.2485L170.232 55.4448L170.245 55.4321L170.256 55.4194C170.717 54.9041 171.619 54.0605 172.967 53.9194C174.574 53.7514 175.7 54.6535 176.287 55.4067L176.421 55.5669C176.703 55.8783 177.077 56.148 177.596 56.3589L177.867 56.4595L177.908 56.4722C178.538 56.6937 179.817 56.8415 182.023 56.6109L182.378 56.5679C184.122 56.3228 185.433 55.6548 186.457 54.6294L186.484 54.603C187.04 54.0611 187.56 53.2609 187.977 52.1128C186.072 53.1539 183.913 53.7732 181.562 54.0191C177.49 54.4449 173.742 53.5731 171.374 50.4605L171.367 50.4507C169.212 47.5919 168.72 43.8057 169.23 39.6489L169.231 39.646L171.761 19.2485C171.872 18.3219 172.224 17.2845 173.059 16.4419C173.908 15.5843 174.965 15.2254 175.92 15.1255L178.6 14.8452C179.44 14.7573 180.898 14.8076 182.019 15.9741C182.979 16.9748 183.111 18.1982 183.066 19.0347L183.039 19.3677L183.038 19.3784L183.036 19.3892L180.725 38.2515C180.484 40.2402 180.457 41.6805 180.566 42.6519C180.625 43.1722 180.709 43.4392 180.751 43.5493C181.075 43.7564 181.835 44.0274 183.493 43.854C184.581 43.7401 185.999 43.0195 187.672 40.7935V40.7925L187.973 40.3804C189.433 38.3036 190.326 35.9638 190.653 33.314L192.642 17.0698C192.752 16.142 193.103 15.1024 193.939 14.2583C194.789 13.4007 195.847 13.0408 196.802 12.9409L199.481 12.6607ZM67.4229 12.5142C68.2438 12.4284 69.6839 12.5398 70.6885 13.8198C71.4416 14.7796 71.4945 15.8591 71.4463 16.5259L71.4219 16.7847L71.4209 16.7935L65.834 61.896L65.833 61.895C65.7223 62.822 65.3724 63.8607 64.5371 64.7036C63.6872 65.5612 62.6296 65.9202 61.6748 66.02L58.9951 66.3003C58.1547 66.3881 56.6974 66.3377 55.5771 65.1714C55.2717 64.8533 55.0515 64.512 54.8926 64.1685C57.645 60.7127 59.2572 57.0954 59.8857 54.2388L59.96 53.8862C60.308 52.1379 60.3384 50.5364 59.7285 49.1714C59.1339 47.8409 58.0942 47.1878 57.6484 46.9478C57.6988 46.9187 57.7498 46.8898 57.7998 46.8589C58.8873 46.1872 59.8788 45.0747 60.25 43.4663C60.5812 42.0313 60.3406 40.5374 59.7637 39.0767L59.6445 38.7847C59.0922 37.4893 58.4859 36.3148 57.8447 35.2495L59.499 21.9155H59.5C59.5978 21.0238 59.9066 20.2083 60.3545 19.4888L60.3594 19.4819L60.3643 19.4741L63.0664 15.1909C63.3442 14.7425 63.6593 14.2835 64.0088 13.897C64.1872 13.6997 64.4355 13.4527 64.752 13.231C65.0473 13.024 65.5905 12.705 66.332 12.6275L67.4229 12.5142ZM101.06 22.9536C101.9 22.8657 103.358 22.916 104.479 24.0825C105.44 25.0833 105.571 26.3075 105.526 27.1441L105.499 27.4761L105.498 27.4888L105.496 27.5015L101.708 58.1177L101.709 58.1187C101.602 59.0518 101.252 60.1012 100.409 60.9517C99.5592 61.8094 98.5017 62.1692 97.5469 62.2691L94.9297 62.5425C94.0893 62.6304 92.6312 62.5801 91.5107 61.4136C91.4408 61.3407 91.3759 61.2659 91.3145 61.1909C91.2226 61.2591 91.1305 61.3287 91.0371 61.396L91.0293 61.4019C88.7401 63.0397 86.1311 63.9988 83.2666 64.2984C79.3098 64.7121 75.7225 63.7699 73.335 60.7661L73.3271 60.7564C71.0769 57.8994 70.5456 54.0931 71.0586 49.9155L71.0596 49.9126L73.5898 29.5151C73.7006 28.5885 74.0518 27.5511 74.8867 26.7085C75.7367 25.8508 76.7942 25.491 77.749 25.3911L80.4287 25.1109C81.2692 25.023 82.7265 25.0744 83.8467 26.2407C84.8077 27.2415 84.9402 28.4647 84.8955 29.3013L84.8672 29.6343L84.8662 29.645L84.8643 29.6558L82.5527 48.5122L82.5537 48.5132C82.3131 50.5027 82.2876 51.9396 82.4004 52.9058C82.462 53.4334 82.55 53.6971 82.5908 53.8003C82.9098 54.0206 83.6276 54.2983 85.1963 54.1343L85.5918 54.0835C87.5238 53.7887 88.8252 52.8628 89.7539 51.229C91.022 48.9737 91.846 46.442 92.2031 43.6011L94.2207 27.3569C94.3316 26.4304 94.6837 25.3927 95.5186 24.5503C96.3684 23.6929 97.4252 23.3338 98.3799 23.2339L101.06 22.9536ZM181.784 63.6646C181.565 63.6874 181.35 63.7086 181.14 63.728L181.784 63.6655C182.126 63.6298 182.461 63.5901 182.789 63.5474L181.784 63.6646ZM184.546 63.272L184.68 63.2495C184.746 63.2372 184.811 63.2232 184.876 63.2105C184.767 63.2317 184.657 63.2517 184.546 63.272ZM185.043 63.1773C185.181 63.1495 185.318 63.1206 185.454 63.0913C185.318 63.1206 185.181 63.1495 185.043 63.1773ZM185.596 63.061C185.749 63.0271 185.9 62.9915 186.049 62.9556C185.9 62.9915 185.749 63.0271 185.596 63.061ZM172.855 62.7261C173.003 62.8092 173.157 62.8892 173.314 62.9673L172.856 62.7261C172.709 62.643 172.566 62.5573 172.428 62.4692L172.855 62.7261ZM186.687 62.7935C186.838 62.7526 186.988 62.7106 187.136 62.6675C186.988 62.7106 186.838 62.7526 186.687 62.7935ZM187.186 62.6528C187.325 62.6117 187.463 62.569 187.599 62.5259C187.463 62.569 187.325 62.6117 187.186 62.6528ZM188.573 62.189C188.295 62.2944 188.007 62.3958 187.711 62.4917C188.007 62.3958 188.295 62.2944 188.573 62.189ZM57.4365 62.4253C57.4366 62.4315 57.4373 62.4377 57.4375 62.4439C57.4362 62.3925 57.4367 62.3391 57.4395 62.2837L57.4365 62.4253ZM188.668 62.1538C188.776 62.1121 188.883 62.069 188.988 62.0259C188.883 62.069 188.776 62.1121 188.668 62.1538ZM190.368 61.3784C189.979 61.5881 189.566 61.7853 189.128 61.9692C189.566 61.7853 189.979 61.5881 190.368 61.3784ZM171.487 61.7632C171.544 61.8133 171.601 61.8627 171.66 61.9116L171.487 61.7622C171.431 61.712 171.375 61.6614 171.321 61.6099L171.487 61.7632ZM82.3496 61.4478C82.1493 61.4604 81.9523 61.4676 81.7588 61.4712C81.9523 61.4676 82.1493 61.4613 82.3496 61.4487L82.9629 61.396L82.3496 61.4478ZM171.013 61.2944C171.028 61.3108 171.044 61.3261 171.059 61.3423C171.043 61.326 171.028 61.3099 171.013 61.2935C170.984 61.2616 170.957 61.2294 170.931 61.1978C170.957 61.2296 170.984 61.2624 171.013 61.2944ZM116.097 7.95948C116.937 7.87168 118.393 7.9231 119.514 9.08937C120.474 10.0898 120.608 11.3124 120.563 12.1489L120.535 12.4829L120.532 12.5064L119.41 21.5923C120.973 20.7319 122.591 20.1657 124.255 19.9917C128.787 19.5179 132.826 20.5409 135.456 23.8726H135.455C137.666 26.627 138.914 29.9938 139.314 33.8267C139.938 39.7858 138.616 45.4871 135.444 50.8501L135.441 50.856C132.219 56.2772 127.792 59.6417 122.13 60.2339C119.597 60.4988 117.219 60.3761 115.231 59.5708L115.215 59.565L115.198 59.5571C114.788 59.3848 114.387 59.188 113.997 58.9712C113.886 59.1373 113.767 59.3025 113.628 59.4595C112.887 60.2978 111.904 60.7667 110.855 60.8765L108.236 61.1509C107.396 61.2387 105.939 61.1878 104.819 60.022C103.721 58.8784 103.704 57.4431 103.798 56.6275L103.802 56.604L109.257 12.3657C109.367 11.4385 109.718 10.3995 110.554 9.55616C111.404 8.69856 112.461 8.33961 113.416 8.23976L116.097 7.95948ZM190.848 61.105C190.941 61.0494 191.032 60.9933 191.122 60.936C191.032 60.9933 190.941 61.0494 190.848 61.105ZM170.692 60.8687C170.709 60.8966 170.728 60.9236 170.747 60.9517C170.722 60.9143 170.699 60.8772 170.677 60.8403L170.692 60.8687ZM191.249 60.853C191.328 60.801 191.407 60.7491 191.483 60.6958C191.407 60.7491 191.328 60.801 191.249 60.853ZM192.007 60.3081L192.247 60.1109C192.274 60.0876 192.299 60.062 192.326 60.0386C192.222 60.1295 192.117 60.2205 192.007 60.3081ZM192.432 59.9439C192.508 59.8746 192.584 59.805 192.657 59.7339C192.584 59.8049 192.508 59.8745 192.432 59.9439ZM193.489 58.8159C193.365 58.9701 193.238 59.1208 193.107 59.2671L193.49 58.8169C193.615 58.6628 193.735 58.5043 193.854 58.3423L193.489 58.8159ZM75.6182 58.9517C75.6235 58.9584 75.6294 58.9645 75.6348 58.9712C75.6293 58.9644 75.6236 58.9575 75.6182 58.9507C75.5691 58.8884 75.5207 58.8253 75.4736 58.7612L75.6182 58.9517ZM89.6787 58.7739L90.0156 58.5161C90.0808 58.4652 90.144 58.4123 90.208 58.3609C90.0353 58.4996 89.8595 58.6382 89.6787 58.7739ZM74.8398 57.7329C74.9888 58.0246 75.1541 58.3022 75.335 58.5659L75.2021 58.3648C75.0725 58.1616 74.9516 57.9508 74.8398 57.7319V57.7329ZM90.3721 58.228C90.5385 58.0912 90.7022 57.9543 90.8613 57.815C90.7022 57.9543 90.5386 58.0913 90.3721 58.228ZM194.836 56.7769C194.636 57.1484 194.424 57.5043 194.199 57.8442L194.527 57.3228C194.633 57.1451 194.736 56.9634 194.836 56.7778V56.7769ZM174.272 57.5396C174.309 57.5794 174.346 57.618 174.384 57.6567C174.295 57.5652 174.209 57.4711 174.127 57.3735L174.272 57.5396ZM149.336 17.9048C150.176 17.8169 151.634 17.8683 152.754 19.0347C153.715 20.0354 153.847 21.2587 153.803 22.0952L153.774 22.4282L153.772 22.44L153.771 22.4526L149.984 53.0698L149.985 53.0708C149.878 54.0039 149.527 55.0534 148.685 55.9038C147.835 56.7612 146.778 57.1203 145.823 57.2202L143.143 57.5005C142.302 57.5883 140.845 57.5377 139.725 56.3716C138.626 55.2282 138.609 53.7938 138.703 52.978L138.707 52.9526L142.496 22.3101H142.497C142.608 21.3831 142.959 20.3444 143.794 19.5015C144.644 18.644 145.702 18.2849 146.656 18.1851L149.336 17.9048ZM172.541 57.2456C172.504 57.2828 172.467 57.3228 172.43 57.3648L172.541 57.2466C172.578 57.2093 172.615 57.1745 172.651 57.1421L172.541 57.2456ZM106.682 57.1235C106.678 57.1825 106.678 57.2391 106.68 57.2935C106.677 57.1909 106.683 57.0803 106.696 56.9614L106.682 57.1235ZM173.987 57.2017L173.904 57.103C173.897 57.0948 173.887 57.0884 173.88 57.0806C173.916 57.1175 173.953 57.1569 173.987 57.2017ZM173.822 57.0259C173.799 57.005 173.776 56.9851 173.753 56.9673C173.777 56.985 173.799 57.005 173.822 57.0259ZM86.6084 56.8618C86.4298 56.8996 86.2483 56.9336 86.0635 56.9624L86.6084 56.8628C86.6978 56.8439 86.7862 56.8234 86.874 56.8023L86.6084 56.8618ZM111.863 56.6919C111.868 56.6761 111.873 56.6602 111.877 56.6441C111.873 56.6602 111.868 56.6761 111.863 56.6919ZM115.569 56.5083C115.653 56.5526 115.736 56.5948 115.82 56.6362L115.569 56.5073C115.486 56.4631 115.403 56.4177 115.32 56.3706L115.569 56.5083ZM87.8887 56.4966C87.8074 56.5264 87.7253 56.5549 87.6426 56.5825L87.8896 56.4966C87.9712 56.4666 88.0518 56.435 88.1318 56.4028L87.8887 56.4966ZM195.399 55.6157C195.312 55.8172 195.221 56.0149 195.127 56.2085L195.4 55.6157C195.488 55.4143 195.573 55.2088 195.654 54.9995L195.399 55.6157ZM88.8301 56.0835C88.7549 56.1222 88.6792 56.1603 88.6025 56.1968L88.8311 56.0835C88.9063 56.0448 88.981 56.0053 89.0547 55.9644L88.8301 56.0835ZM165.906 2.21437C166.727 2.12865 168.166 2.24134 169.171 3.52101C169.924 4.48086 169.978 5.56031 169.93 6.22706L169.905 6.48585L169.904 6.49366L164.317 51.5972L164.316 51.5962C164.206 52.5231 163.856 53.5619 163.021 54.4048C162.171 55.2623 161.113 55.6214 160.158 55.7212L157.479 56.0015C156.638 56.0893 155.181 56.0379 154.061 54.8716C152.962 53.7281 152.946 52.2937 153.04 51.478L153.043 51.4526L157.982 11.6167L157.983 11.6157C158.081 10.7243 158.39 9.90928 158.838 9.18995L158.843 9.18214L158.848 9.1753L161.55 4.89112C161.828 4.44289 162.143 3.98449 162.492 3.59816C162.671 3.40091 162.918 3.15385 163.234 2.93214C163.53 2.72522 164.074 2.40621 164.815 2.32862L165.906 2.21437ZM92.7119 55.9302C92.7427 55.8934 92.7734 55.8568 92.8037 55.8198C92.7734 55.8568 92.7426 55.8934 92.7119 55.9302ZM114.342 55.7368C114.418 55.7923 114.495 55.846 114.571 55.8989C114.414 55.7902 114.258 55.6757 114.103 55.5562L114.342 55.7368ZM93.54 54.8413C93.4702 54.943 93.3992 55.0445 93.3262 55.145L93.541 54.8423C93.6109 54.7406 93.6784 54.6375 93.7451 54.5347L93.54 54.8413ZM79.9492 55.0425C79.9623 55.0716 79.9775 55.0994 79.9912 55.1275C79.9528 55.0487 79.9152 54.9668 79.8809 54.8804L79.9492 55.0425ZM113.406 54.9741C113.46 55.0219 113.513 55.0693 113.566 55.1157C113.513 55.0693 113.46 55.0219 113.406 54.9741ZM113.009 54.603C113.077 54.6697 113.146 54.7359 113.215 54.8003C113.146 54.7359 113.077 54.6697 113.009 54.603ZM90.8594 54.5864C90.7995 54.6474 90.7391 54.7074 90.6777 54.7661L90.8604 54.5864C90.92 54.5257 90.979 54.4638 91.0371 54.4009L90.8594 54.5864ZM79.7578 54.5278C79.7767 54.5897 79.7969 54.6498 79.8174 54.7085L79.7588 54.5278C79.7209 54.4039 79.6858 54.2738 79.6543 54.1372L79.7578 54.5278ZM141.929 54.437C141.95 54.4521 141.972 54.4659 141.995 54.479C141.949 54.4526 141.907 54.4224 141.868 54.3882L141.929 54.437ZM112.473 54.0571C112.608 54.2027 112.745 54.3426 112.882 54.479L112.473 54.0571ZM57.1172 52.4605C57.0769 52.7932 57.0132 53.1669 56.9209 53.5864L56.835 53.939C56.8646 53.8194 56.8953 53.7017 56.9209 53.5855C57.0132 53.1657 57.0769 52.7923 57.1172 52.4595V52.4605ZM91.542 53.8013L91.7012 53.5884C91.7197 53.5628 91.7366 53.5361 91.7549 53.5103C91.685 53.6091 91.6148 53.7066 91.542 53.8013ZM196.075 53.8003L196.109 53.6958C196.128 53.6368 196.142 53.5766 196.16 53.5171C196.132 53.612 196.105 53.7068 196.075 53.8003ZM141.584 53.6255C141.584 53.6317 141.585 53.6379 141.585 53.6441C141.584 53.5927 141.584 53.5393 141.587 53.4839L141.584 53.6255ZM92.0039 53.1431C91.9373 53.2469 91.8682 53.348 91.7988 53.4478C91.9708 53.2008 92.1355 52.9423 92.29 52.6704L92.0039 53.1431ZM157.175 53.1001C157.116 53.1062 157.06 53.1098 157.006 53.1118L157.176 53.1001L159.855 52.8198L157.175 53.1001ZM196.278 53.1118C196.298 53.0419 196.317 52.9716 196.336 52.9009C196.317 52.9716 196.298 53.0419 196.278 53.1118ZM155.92 52.1265C155.92 52.1327 155.921 52.1389 155.921 52.145C155.92 52.0937 155.92 52.0403 155.923 51.9849L155.92 52.1265ZM114.257 51.3882C114.294 51.4426 114.334 51.4944 114.372 51.5464C114.324 51.482 114.277 51.4161 114.231 51.3482L114.257 51.3882ZM113.677 50.2964L113.676 50.2935C113.584 50.0715 113.5 49.8366 113.423 49.5894C113.5 49.8377 113.584 50.0736 113.677 50.2964ZM126.24 30.7359C125.91 30.2806 125.344 29.8402 123.727 30.0093C122.925 30.0933 121.63 30.7223 119.969 33.106L119.968 33.105C118.357 35.4205 117.457 37.7094 117.166 39.9878L117.167 39.9888L116.117 48.4107C116.442 49.656 116.87 50.0243 117.054 50.1343C117.522 50.3834 118.591 50.642 120.663 50.4253L121.011 50.3775C122.745 50.0795 124.417 48.8837 125.907 45.9126C127.505 42.7009 128.133 39.0354 127.692 34.8218C127.511 33.0896 126.998 31.7705 126.25 30.7505L126.245 30.7437L126.24 30.7359ZM113.291 49.1294C113.307 49.1901 113.324 49.2497 113.341 49.3091C113.324 49.2498 113.307 49.1901 113.291 49.1294ZM187.409 49.0503C187.453 49.0216 187.497 48.9948 187.54 48.9653L187.609 48.9155C187.543 48.9615 187.476 49.0057 187.409 49.0503ZM173.558 48.5044C173.603 48.5687 173.649 48.6322 173.696 48.6948C173.742 48.7546 173.789 48.813 173.836 48.8706C173.789 48.8129 173.742 48.7537 173.696 48.6939C173.602 48.5687 173.511 48.4402 173.425 48.3081L173.558 48.5044ZM188.612 48.1411C188.374 48.3382 188.129 48.5323 187.877 48.7232C187.829 48.7588 187.78 48.7928 187.731 48.8276L187.877 48.7241C188.129 48.5332 188.374 48.3383 188.612 48.1411ZM184.616 46.6138C184.484 46.6457 184.351 46.6736 184.218 46.6968C184.488 46.6498 184.756 46.5852 185.021 46.5025L184.616 46.6138ZM94.8877 45.3325C94.8987 45.271 94.9113 45.2097 94.9219 45.148L94.9277 45.1118C94.9152 45.1856 94.9008 45.259 94.8877 45.3325ZM177.854 44.0366C177.815 43.8852 177.782 43.7252 177.752 43.5571C177.782 43.7253 177.815 43.8852 177.854 44.0366ZM177.715 43.3316C177.722 43.3813 177.729 43.4306 177.737 43.479C177.729 43.4306 177.722 43.3813 177.715 43.3316ZM177.671 42.9966C177.677 43.0503 177.683 43.1034 177.689 43.1558C177.683 43.1034 177.677 43.0503 177.671 42.9966ZM177.639 42.6792C177.641 42.7084 177.644 42.7373 177.646 42.7661C177.644 42.7373 177.641 42.7084 177.639 42.6792ZM57.1553 40.815C57.1937 40.9462 57.2265 41.0735 57.2539 41.1968C57.2267 41.0747 57.1944 40.9487 57.1562 40.8189L57.1553 40.815ZM177.677 39.3823C177.657 39.6229 177.641 39.8569 177.628 40.0845L177.677 39.3931C177.677 39.3895 177.676 39.3859 177.677 39.3823ZM177.829 37.896C177.8 38.1377 177.773 38.374 177.749 38.605C177.773 38.3743 177.8 38.1383 177.829 37.897V37.896ZM193.278 35.2954C193.311 35.1384 193.342 34.9805 193.371 34.8218C193.341 34.9805 193.311 35.1385 193.278 35.2954ZM193.405 34.6245C193.418 34.5514 193.431 34.4783 193.443 34.4048C193.431 34.4783 193.418 34.5514 193.405 34.6245ZM193.549 33.6694L193.479 34.1763C193.504 34.0079 193.529 33.8388 193.55 33.6685L195.537 17.4243L193.549 33.6694ZM117.574 31.437C117.459 31.6026 117.347 31.7688 117.237 31.9351L117.575 31.437C117.691 31.2702 117.808 31.108 117.925 30.9507L117.574 31.437ZM130.046 31.8716L129.927 31.5239C129.913 31.4857 129.896 31.4486 129.882 31.4107C129.939 31.5623 129.995 31.7154 130.046 31.8716ZM129.816 31.2437C129.772 31.1322 129.728 31.0215 129.681 30.9126C129.728 31.0215 129.772 31.1322 129.816 31.2437ZM129.132 29.8325C129.205 29.9575 129.277 30.0836 129.346 30.2124L129.176 29.9038C129.162 29.8796 129.146 29.8566 129.132 29.8325ZM128.937 29.5151C128.912 29.4765 128.887 29.4381 128.861 29.3999C128.887 29.4382 128.912 29.4765 128.937 29.5151ZM80.7314 28.0122L78.0518 28.2925L80.7324 28.0122C80.7908 28.0061 80.8471 28.0025 80.9014 28.0005L80.7314 28.0122ZM117.652 11.8198C117.655 11.9216 117.65 12.0312 117.637 12.1489L115.78 27.2007L117.638 12.1489C117.651 12.0313 117.655 11.9216 117.652 11.8198ZM149.639 20.8062L146.959 21.0864L149.64 20.8062C149.698 20.8001 149.754 20.7964 149.809 20.7944L149.639 20.8062ZM65.5332 16.7466L63.1621 20.5054L65.5332 16.7476C65.5929 16.6508 65.6509 16.5596 65.707 16.4741V16.4732C65.6509 16.5585 65.593 16.6497 65.5332 16.7466ZM150.792 6.2212C151.632 6.13338 153.09 6.18483 154.21 7.35109C155.171 8.35178 155.304 9.57511 155.26 10.4116L155.231 10.7446L155.229 10.7583L155.228 10.772L154.884 13.5181L154.882 13.5337L154.88 13.5513C154.753 14.4808 154.385 15.5113 153.546 16.3433C152.699 17.1833 151.652 17.542 150.694 17.6421L148.014 17.9224C147.183 18.0091 145.699 17.9656 144.576 16.7632C143.495 15.6058 143.505 14.1743 143.61 13.3687L143.953 10.6226C144.064 9.69668 144.416 8.6606 145.25 7.81886C146.1 6.96128 147.157 6.60139 148.111 6.50148L150.792 6.2212ZM68.5381 16.0581L68.5303 15.9771C68.5296 15.9721 68.5281 15.9673 68.5273 15.9624C68.532 15.9931 68.5356 16.0249 68.5381 16.0581ZM199.784 15.562L197.104 15.8423L199.785 15.562C199.843 15.5559 199.9 15.5523 199.954 15.5503L199.784 15.562ZM67.7256 15.4146L66.6348 15.5288L67.7256 15.4155C67.7643 15.4115 67.8019 15.4086 67.8379 15.4077L67.7256 15.4146ZM147.395 15.0347L147.542 15.0337C147.434 15.0376 147.335 15.0334 147.243 15.021C147.291 15.0275 147.342 15.0327 147.395 15.0347ZM146.504 13.73C146.488 13.8454 146.481 13.9531 146.48 14.0532C146.481 13.9532 146.489 13.8454 146.505 13.73L146.848 10.9849L146.504 13.73ZM113.341 11.2105C113.326 11.2145 113.311 11.2188 113.297 11.2232C113.311 11.2189 113.326 11.2145 113.341 11.2105ZM113.549 11.1636C113.538 11.1655 113.527 11.1684 113.516 11.1704C113.581 11.1583 113.649 11.1485 113.72 11.1411L113.549 11.1636ZM161.313 10.7319L161.262 10.8208C161.279 10.7913 161.296 10.7613 161.314 10.7319L164.017 6.44777L161.313 10.7319ZM167.021 5.75929L167.014 5.67823C167.013 5.67328 167.011 5.66848 167.011 5.66359C167.015 5.69423 167.019 5.7261 167.021 5.75929ZM186.131 62.936C186.301 62.8945 186.469 62.8513 186.635 62.8071C186.469 62.8513 186.301 62.8945 186.131 62.936ZM190.407 61.356C190.526 61.2914 190.643 61.2257 190.757 61.1587C190.643 61.2257 190.526 61.2914 190.407 61.356ZM187.126 49.2339C187.206 49.1845 187.284 49.1328 187.362 49.0816C187.284 49.1329 187.206 49.1843 187.126 49.2339ZM177.854 44.0366C177.865 44.0838 177.879 44.1298 177.892 44.1753C177.879 44.1298 177.865 44.0838 177.854 44.0366ZM177.739 38.7085C177.716 38.9385 177.695 39.1631 177.677 39.3823C177.695 39.1631 177.716 38.9385 177.739 38.7085Z" fill="white"/>
<path d="M51.3871 51.3523C46.3057 58.0428 39.6119 61.4719 32.4083 57.0032C25.58 52.5014 24.9986 41.6574 31.9616 36.9966C37.4963 33.2918 45.537 34.0783 49.4525 40.1766C51.8653 43.9345 52.6657 44.431 53.4495 44.7398C54.4376 45.2198 59.0409 44.843 57.0081 40.0753C53.667 32.239 48.1875 29.4568 45.7627 28.3998C44.1482 27.696 40.93 27.0476 36.4144 27.4776C35.5743 27.5576 35.4015 27.3881 35.2655 27.2548L35.2595 27.2489L35.2588 27.2482C35.2203 27.2105 34.8713 26.8692 35.2639 26.2368C36.7815 23.7921 40.8748 17.8437 42.2107 16.0433C43.5624 14.2215 46.904 9.95459 47.7553 8.17722C48.8905 5.80725 46.4465 0.477614 41.656 5.50203C35.9453 11.4916 29.4901 19.7537 27.0795 24.5688C26.6081 25.5103 26.2907 26.3405 25.8108 27.3286C24.6882 29.13 23.4888 28.3922 24.1768 25.9604C26.4817 17.8135 33.1902 9.16835 34.2665 7.47966C35.927 4.87425 36.1861 3.52753 35.3525 2.6558C34.2903 1.54506 32.0501 1.66743 30.9868 2.4748C28.9194 4.0446 24.4285 9.14457 20.6862 16.4352C16.944 23.7258 16.0416 25.9239 15.3575 26.7409C14.5189 27.9498 14.1818 26.2776 14.5787 24.3513C15.0411 22.1067 16.475 15.8624 21.5398 8.98425C24.0869 5.52519 20.3574 4.17193 18.4428 6.04337C16.4537 7.98752 3.68359 23.0461 3.61718 43.6655C3.56406 60.161 12.8401 66.6778 18.0344 69.8113C19.973 70.9808 27.6774 74.064 36.5847 72.1411C49.696 69.3105 55.8192 59.4072 57.0779 53.6854C57.8166 50.3273 56.7458 49.9325 56.1496 49.607C55.5535 49.2815 53.2432 48.6517 51.3871 51.3523Z" fill="white"/>
</svg>
