<svg width="32" height="32" viewBox="0 0 32 32" fill="none" xmlns="http://www.w3.org/2000/svg">
<path d="M28.618 8.67871C28.5273 8.51737 28.4033 8.37604 28.2553 8.26537C26.082 6.63871 18.774 1.33337 16.0007 1.33337C13.2273 1.33337 5.91932 6.63871 3.74598 8.26537C3.59798 8.37604 3.47398 8.51737 3.38332 8.67871C3.29932 8.82671 1.33398 12.396 1.33398 19.3334C1.33398 23.5014 2.67798 27.584 2.73532 27.7547C2.85532 28.116 3.12465 28.408 3.47532 28.5587C3.67665 28.6454 8.47932 30.6667 16.0007 30.6667C23.522 30.6667 28.3246 28.6454 28.526 28.5587C28.8753 28.4094 29.1446 28.116 29.266 27.7547C29.3233 27.5827 30.6673 23.5014 30.6673 19.3334C30.6673 12.396 28.702 8.82804 28.618 8.67871ZM16.0007 28C10.4753 28 6.49798 26.8107 5.08598 26.3174C4.73665 25.0974 4.00065 22.1894 4.00065 19.3334C4.00065 14.096 5.22198 11.0307 5.59798 10.212C9.67265 7.18804 14.73 4.00004 16.0007 4.00004C17.2713 4.00004 22.3286 7.18804 26.4033 10.2107C26.7833 11.04 28.0006 14.1027 28.0006 19.3334C28.0006 22.1907 27.2647 25.1 26.9153 26.3187C25.5113 26.812 21.5567 28 16.0007 28Z" fill="white"/>
</svg>
