<svg width="193" height="71" viewBox="0 0 193 71" fill="none" xmlns="http://www.w3.org/2000/svg">
<path d="M188.255 12.563C189.048 12.4801 190.423 12.5289 191.48 13.6294C192.516 14.7081 192.532 16.0612 192.443 16.8306L192.441 16.8413L192.44 16.8521L188.678 47.3804L188.679 47.3814C188.136 51.8366 186.761 55.5993 184.296 58.3628L184.295 58.3618C181.634 61.3671 177.213 62.8552 171.846 63.4165C168.495 63.7669 165.551 63.7771 163.535 63.0054C161.91 62.3831 160.464 61.5089 159.36 60.2925L159.355 60.2866L159.351 60.2818C158.797 59.6647 158.216 58.7646 158.129 57.604C158.036 56.3569 158.547 55.3262 159.201 54.5982L160.662 52.9253L160.674 52.9136L160.685 52.9009C161.12 52.4147 161.971 51.6198 163.242 51.4868C164.759 51.3284 165.82 52.1795 166.374 52.8902L166.5 53.0396C166.767 53.3337 167.12 53.5885 167.609 53.7876L167.866 53.8824L167.884 53.8882L167.902 53.896C168.497 54.1051 169.704 54.2435 171.785 54.0259C173.599 53.8362 174.938 53.1879 175.969 52.1558L175.993 52.1314C176.517 51.6201 177.009 50.865 177.401 49.7818C175.604 50.7639 173.569 51.3476 171.352 51.5796C167.51 51.9814 163.974 51.1594 161.74 48.2232L161.732 48.2134C159.699 45.5165 159.235 41.9452 159.717 38.024L159.718 38.021L162.104 18.7779C162.209 17.9038 162.541 16.9252 163.328 16.1304C164.13 15.3215 165.127 14.9825 166.027 14.8882L168.556 14.6236C169.348 14.5407 170.724 14.5885 171.781 15.689C172.817 16.7678 172.833 18.1217 172.744 18.8911L172.743 18.9009L172.741 18.9107L170.56 36.7056C170.333 38.5815 170.307 39.9396 170.41 40.856C170.465 41.3461 170.546 41.5983 170.585 41.7027C170.89 41.8981 171.606 42.1544 173.172 41.9907C174.198 41.8833 175.536 41.2031 177.114 39.1031H177.115C178.661 37.0477 179.599 34.7128 179.928 32.0454L181.803 16.7232C181.907 15.8479 182.238 14.8671 183.027 14.0708C183.829 13.2618 184.826 12.9219 185.727 12.8277L188.255 12.563ZM63.6719 12.4243C64.4463 12.3435 65.8043 12.4494 66.752 13.6568C67.5639 14.6914 67.5146 15.8733 67.4443 16.4536L67.4424 16.4615L62.1738 59.0113L62.1719 59.0103C62.0675 59.8848 61.7373 60.8644 60.9492 61.6597C60.1475 62.4686 59.1506 62.8076 58.25 62.9019L55.7217 63.1665C54.929 63.2494 53.554 63.2011 52.4971 62.1011C52.068 61.6542 51.8159 61.1595 51.6719 60.6792C54.3384 57.3763 55.8946 53.9027 56.4961 51.1685C56.8874 49.3896 56.9616 47.761 56.3477 46.3872C55.7869 45.1325 54.8055 44.5172 54.3848 44.2906C54.4321 44.2632 54.4804 44.2366 54.5273 44.2075C55.5532 43.5738 56.4887 42.5228 56.8389 41.0054C57.172 39.5615 56.8921 38.0544 56.2676 36.5894C55.7812 35.4486 55.2479 34.4086 54.6875 33.4575L56.1963 21.2935H56.1982C56.2906 20.4526 56.5806 19.6839 57.0029 19.0054L57.0078 18.9986L57.0127 18.9908L59.5625 14.9497C59.8246 14.5268 60.1215 14.0936 60.4512 13.729C60.6195 13.5429 60.8539 13.3113 61.1523 13.1021C61.4308 12.9069 61.9421 12.6061 62.6416 12.5327L63.6719 12.4243ZM95.4053 22.273C96.1982 22.1901 97.573 22.239 98.6299 23.3394C99.6656 24.4181 99.6812 25.7711 99.5928 26.5406L99.5918 26.5513L99.5898 26.563L96.0146 55.4722L96.0127 55.4712C95.9083 56.3458 95.5782 57.3253 94.79 58.1206C93.9885 58.9294 92.9923 59.2685 92.0918 59.3628L89.6211 59.6216C88.8282 59.7045 87.4533 59.6564 86.3965 58.5562C86.3306 58.4876 86.2688 58.4178 86.2109 58.3472C86.1245 58.4113 86.038 58.4763 85.9502 58.5396L85.9414 58.5454C83.782 60.0904 81.3212 60.9952 78.6191 61.2779C74.8862 61.6682 71.5014 60.7788 69.249 57.9449L69.2422 57.9361C67.1193 55.2408 66.6186 51.6506 67.1025 47.7095V47.7066L69.4893 28.4634C69.5938 27.5894 69.9255 26.6108 70.7129 25.8159C71.5147 25.0069 72.5123 24.667 73.4131 24.5728L75.9414 24.3091C76.7343 24.2263 78.1092 24.2742 79.166 25.3745C80.2018 26.4532 80.2173 27.8062 80.1289 28.5757L80.1279 28.5865L80.126 28.5962L77.9443 46.3911C77.7179 48.2654 77.6954 49.6191 77.8018 50.5298C77.8603 51.0312 77.9443 51.2806 77.9824 51.3765C78.2841 51.5842 78.9624 51.8434 80.4395 51.689C82.4694 51.4766 83.8047 50.5928 84.7393 48.9488C85.9356 46.821 86.7129 44.4316 87.0498 41.7515L88.9531 26.4283C89.0577 25.5543 89.3895 24.5756 90.1768 23.7808C90.9786 22.9716 91.9761 22.6318 92.877 22.5376L95.4053 22.273ZM54.251 59.5113C54.2518 59.5626 54.2558 59.6117 54.2607 59.6587C54.2516 59.5721 54.2488 59.4784 54.2539 59.3775L54.251 59.5113ZM78.332 58.5406C77.9406 58.5815 77.562 58.6041 77.1963 58.6109C77.3791 58.6075 77.5656 58.6013 77.7549 58.5894L78.333 58.5406C78.4737 58.5258 78.6133 58.5085 78.752 58.4898C78.613 58.5085 78.4729 58.5258 78.332 58.5406ZM109.59 8.12747C110.383 8.04459 111.758 8.09284 112.814 9.1929C113.85 10.2717 113.867 11.6256 113.778 12.395L113.776 12.4058L113.774 12.4175L112.717 20.9888C114.191 20.1772 115.717 19.6432 117.287 19.479C121.553 19.0331 125.356 19.9929 127.837 23.1187C129.933 25.7211 131.116 28.9061 131.495 32.5318C132.083 38.1534 130.836 43.532 127.844 48.5913L127.84 48.5962C124.799 53.7106 120.624 56.8853 115.282 57.4439C112.893 57.6938 110.65 57.5776 108.774 56.8179L108.743 56.8062C108.356 56.6435 107.978 56.4571 107.609 56.2525C107.505 56.4091 107.392 56.5654 107.262 56.7134C106.563 57.5044 105.634 57.9469 104.645 58.0503L102.176 58.3081C101.383 58.391 100.008 58.3439 98.9512 57.2437C97.9151 56.165 97.8998 54.8111 97.9883 54.0415L97.9893 54.0298L97.9902 54.0191L103.138 12.2847C103.242 11.41 103.573 10.4299 104.361 9.63431C105.163 8.82516 106.161 8.48632 107.062 8.39212L109.59 8.12747ZM91.9658 56.604L92.1084 56.5747L92.1104 56.5738C92.0635 56.5851 92.0154 56.5955 91.9658 56.604ZM93.2832 55.1343C93.2769 55.1892 93.27 55.2427 93.2607 55.2945C93.2701 55.2426 93.2779 55.1892 93.2842 55.1343H93.2832ZM101.326 55.5484C101.444 55.5767 101.579 55.5891 101.73 55.5835L101.729 55.5825C101.578 55.5881 101.444 55.5767 101.326 55.5484ZM140.948 17.5103C141.741 17.4274 143.116 17.4764 144.173 18.5767C145.209 19.6554 145.224 21.0085 145.136 21.7779L145.134 21.7886V21.8003L141.56 50.6841L141.561 50.6851C141.459 51.5654 141.129 52.5556 140.334 53.3579C139.532 54.167 138.535 54.5059 137.634 54.6001L135.105 54.8648C134.313 54.9476 132.938 54.9003 131.881 53.8003C130.845 52.7215 130.829 51.3667 130.918 50.5972L130.919 50.5865L130.921 50.5747L134.496 21.6665C134.601 20.7923 134.932 19.8132 135.72 19.0181C136.521 18.209 137.519 17.8692 138.42 17.7749L140.948 17.5103ZM164.103 54.4654C164.137 54.501 164.172 54.5402 164.205 54.5835C164.209 54.5892 164.214 54.5945 164.219 54.6001L164.205 54.5825C164.172 54.5395 164.137 54.5008 164.103 54.4654ZM109.808 54.2681C109.887 54.3002 109.968 54.3301 110.051 54.3589L109.809 54.2681C109.728 54.2344 109.648 54.199 109.568 54.1626C109.648 54.1989 109.727 54.2345 109.808 54.2681ZM163.992 54.3677C163.967 54.348 163.941 54.3297 163.915 54.314C163.941 54.3298 163.967 54.348 163.992 54.3677ZM163.795 54.2554C163.829 54.2676 163.862 54.2838 163.895 54.3023C163.862 54.2839 163.829 54.2676 163.795 54.2554ZM76.2695 53.5337C76.2995 53.5567 76.3316 53.577 76.3623 53.5991C76.327 53.5738 76.2911 53.5494 76.2568 53.523L76.2695 53.5337ZM156.58 2.70852C157.355 2.6276 158.713 2.73321 159.661 3.94095C160.473 4.97557 160.424 6.15754 160.354 6.73782L160.353 6.74563L155.084 49.27L155.086 49.271C154.985 50.1513 154.653 51.1406 153.858 51.9429C153.057 52.7519 152.06 53.0918 151.159 53.1861L148.63 53.4507C147.837 53.5336 146.463 53.4852 145.406 52.3853C144.37 51.3064 144.354 49.9526 144.442 49.1831L144.446 49.1597L149.105 11.5777L149.106 11.5767C149.199 10.7359 149.491 9.96805 149.913 9.28958L149.921 9.27493L152.471 5.23391C152.733 4.81075 153.031 4.37692 153.36 4.01224C153.529 3.82625 153.762 3.59423 154.061 3.38528C154.339 3.19011 154.851 2.88919 155.551 2.81595L156.58 2.70852ZM88.5039 52.0669C88.4411 52.1637 88.3773 52.2603 88.3115 52.356C88.3774 52.2601 88.442 52.1638 88.5049 52.0669L88.6221 52.0542L88.5039 52.0669ZM137.509 51.8413L137.651 51.812L137.653 51.8111C137.606 51.8224 137.558 51.8328 137.509 51.8413ZM114.185 50.9263C113.979 50.9478 113.778 50.966 113.581 50.98L114.185 50.9273C114.304 50.9148 114.423 50.8987 114.54 50.8804L114.185 50.9263ZM150.872 50.4488H150.873C150.928 50.443 150.981 50.4362 151.033 50.4273C151.053 50.4239 151.072 50.4185 151.092 50.4146C151.021 50.4288 150.948 50.4408 150.872 50.4488ZM151.119 50.4087C151.189 50.3933 151.257 50.3761 151.321 50.355C151.257 50.3761 151.189 50.3935 151.119 50.4087ZM171.951 48.7261C171.662 48.7721 171.366 48.8108 171.064 48.8423C170.655 48.8851 170.26 48.9111 169.88 48.9204C170.067 48.9159 170.257 48.9077 170.451 48.895L171.065 48.8433C171.367 48.8118 171.662 48.7721 171.951 48.7261ZM119.16 29.6158C118.849 29.1861 118.315 28.7706 116.788 28.9302C116.031 29.0096 114.81 29.6026 113.243 31.8511L113.242 31.8501C111.723 34.0345 110.874 36.1939 110.6 38.3433L110.601 38.3443L109.61 46.2876C109.918 47.4697 110.324 47.8156 110.496 47.9175C110.94 48.1521 111.948 48.3939 113.898 48.19C115.652 48.0065 117.348 46.921 118.849 43.9263C120.354 40.8979 120.946 37.4427 120.53 33.4702C120.359 31.8357 119.875 30.5908 119.169 29.6284L119.16 29.6158ZM72.2197 28.8023L69.834 48.0454L72.2207 28.8023C72.2272 28.746 72.2346 28.6913 72.2441 28.6382L72.2197 28.8023ZM120.491 46.6079C120.594 46.4459 120.694 46.2781 120.794 46.107C120.694 46.2781 120.594 46.4458 120.491 46.6079ZM120.845 46.0191C120.939 45.8544 121.033 45.6861 121.125 45.5132C121.033 45.6861 120.939 45.8544 120.845 46.0191ZM168.227 43.1421C168.251 43.1856 168.277 43.2276 168.303 43.2681L168.227 43.1411C168.202 43.0976 168.178 43.0528 168.154 43.0064L168.227 43.1421ZM122.383 29.7261C122.474 29.9323 122.559 30.143 122.638 30.3589L122.516 30.0386C122.473 29.9331 122.428 29.8292 122.383 29.7261ZM117.573 22.2163C117.434 22.2308 117.295 22.2502 117.155 22.273C117.295 22.2504 117.435 22.2318 117.573 22.2173C117.625 22.212 117.676 22.2076 117.727 22.2027C117.676 22.2075 117.624 22.211 117.573 22.2163ZM118.259 22.1587C118.23 22.1606 118.2 22.1635 118.171 22.1656C118.247 22.1602 118.323 22.1561 118.398 22.1519C118.352 22.1545 118.305 22.1557 118.259 22.1587ZM118.961 22.1304C118.9 22.1315 118.838 22.1334 118.776 22.1353C118.838 22.1333 118.9 22.1315 118.961 22.1304ZM166.313 17.6245H166.314L168.843 17.3609H168.842L166.313 17.6245ZM142.322 6.4888C143.115 6.40595 144.489 6.45338 145.546 7.55325C146.582 8.63175 146.598 9.98478 146.51 10.7544L146.508 10.7691L146.507 10.7818L146.183 13.3726L146.179 13.4019C146.059 14.279 145.713 15.2526 144.921 16.0376C144.122 16.8301 143.134 17.1677 142.23 17.2622L139.701 17.5269C138.918 17.6088 137.518 17.5683 136.458 16.4341C135.438 15.3421 135.449 13.9911 135.548 13.231H135.547L135.871 10.6411C135.976 9.7675 136.307 8.78895 137.094 7.99466C137.895 7.18596 138.892 6.84772 139.793 6.75345L142.322 6.4888ZM62.8359 15.2945C62.8041 15.3082 62.7704 15.3278 62.7354 15.3521C62.8064 15.3029 62.871 15.2751 62.9287 15.2691H62.9277C62.8989 15.2722 62.8682 15.2806 62.8359 15.2945ZM64.0635 15.1548C64.13 15.1531 64.1915 15.1569 64.248 15.1665C64.2188 15.1615 64.1882 15.1577 64.1562 15.1558L64.0635 15.1548ZM141.944 14.5259L139.593 14.772L141.944 14.5269L142.03 14.5142C142.002 14.5181 141.973 14.5229 141.944 14.5259ZM110.445 10.8892L110.32 10.8648C110.303 10.8625 110.286 10.8616 110.269 10.8599C110.331 10.8661 110.39 10.8756 110.445 10.8892ZM152.248 10.7437L152.177 10.8658C152.2 10.825 152.224 10.7842 152.249 10.7437L154.799 6.70169H154.798L152.248 10.7437ZM110.235 10.857C110.218 10.8557 110.201 10.8538 110.184 10.8531C110.136 10.8511 110.087 10.8512 110.036 10.8531C110.106 10.8505 110.173 10.8521 110.235 10.857ZM140.079 9.48977L139.919 9.51224C139.971 9.5033 140.025 9.49554 140.08 9.48977L142.608 9.22513L140.079 9.48977ZM164.047 54.4107C164.037 54.4022 164.027 54.3951 164.018 54.3872C164.046 54.4109 164.075 54.4367 164.103 54.4654C164.084 54.4462 164.066 54.4276 164.047 54.4107Z" fill="#FFA600"/>
<path d="M48.4784 48.4455C43.6847 54.7573 37.3698 57.9923 30.5739 53.7766C24.1321 49.5296 23.5836 39.2994 30.1525 34.9024C35.3739 31.4073 42.9594 32.1493 46.6533 37.9024C48.9296 41.4476 49.6847 41.916 50.4241 42.2074C51.3562 42.6601 55.699 42.3047 53.7813 37.8068C50.6293 30.4141 45.4599 27.7894 43.1724 26.7922C41.6493 26.1282 38.6132 25.5166 34.3533 25.9222C33.5607 25.9976 33.3977 25.8378 33.2694 25.712L33.2637 25.7064L33.263 25.7058C33.2268 25.6703 32.8975 25.3483 33.2679 24.7516C34.6995 22.4453 38.5612 16.8336 39.8214 15.1351C41.0966 13.4164 44.2491 9.39106 45.0522 7.71429C46.1231 5.47847 43.8175 0.450506 39.2982 5.19053C33.9107 10.8411 27.8209 18.6355 25.5467 23.1781C25.102 24.0663 24.8026 24.8495 24.3498 25.7816C23.2908 27.481 22.1593 26.785 22.8083 24.4909C24.9827 16.8051 31.3115 8.64932 32.3269 7.05622C33.8934 4.59828 34.1378 3.32778 33.3514 2.5054C32.3494 1.45754 30.2359 1.57298 29.2329 2.33464C27.2825 3.81559 23.0458 8.62688 19.5153 15.5048C15.9849 22.3828 15.1336 24.4564 14.4882 25.2272C13.6971 26.3676 13.379 24.7901 13.7535 22.9729C14.1897 20.8553 15.5425 14.9645 20.3206 8.47564C22.7235 5.21237 19.2051 3.93571 17.3989 5.70122C15.5224 7.53533 3.47508 21.7415 3.41244 41.1938C3.36232 56.7556 12.1133 62.9036 17.0136 65.8597C18.8424 66.963 26.1107 69.8717 34.5139 68.0576C46.8831 65.3872 52.6596 56.0445 53.8471 50.6465C54.544 47.4785 53.5338 47.1061 52.9714 46.799C52.409 46.492 50.2295 45.8978 48.4784 48.4455Z" fill="#FFA600"/>
</svg>
