<svg width="22" height="22" viewBox="0 0 22 22" fill="none" xmlns="http://www.w3.org/2000/svg">
<path d="M21.1933 9.08417L17.6458 5.5C17.5606 5.41408 17.4592 5.34589 17.3475 5.29935C17.2358 5.25281 17.116 5.22885 16.995 5.22885C16.874 5.22885 16.7542 5.25281 16.6425 5.29935C16.5308 5.34589 16.4294 5.41408 16.3442 5.5C16.1734 5.67175 16.0776 5.90408 16.0776 6.14625C16.0776 6.38842 16.1734 6.62075 16.3442 6.7925L19.6075 10.0833H0.916667C0.673552 10.0833 0.440394 10.1799 0.268485 10.3518C0.0965771 10.5237 0 10.7569 0 11C0 11.2431 0.0965771 11.4763 0.268485 11.6482C0.440394 11.8201 0.673552 11.9167 0.916667 11.9167H19.6625L16.3442 15.2258C16.2583 15.3111 16.1901 15.4124 16.1435 15.5241C16.097 15.6358 16.073 15.7557 16.073 15.8767C16.073 15.9977 16.097 16.1175 16.1435 16.2292C16.1901 16.3409 16.2583 16.4423 16.3442 16.5275C16.4294 16.6134 16.5308 16.6816 16.6425 16.7282C16.7542 16.7747 16.874 16.7986 16.995 16.7986C17.116 16.7986 17.2358 16.7747 17.3475 16.7282C17.4592 16.6816 17.5606 16.6134 17.6458 16.5275L21.1933 12.9708C21.7083 12.4552 21.9976 11.7563 21.9976 11.0275C21.9976 10.2987 21.7083 9.59979 21.1933 9.08417Z" fill="black"/>
</svg>
