<svg id="Layer_1" viewBox="0 0 24 24" xmlns="http://www.w3.org/2000/svg" data-name="Layer 1"><path d="m15.207 10.707-1.793 1.793 1.793 1.793c.391.391.391 1.023 0 1.414s-1.023.391-1.414 0l-1.793-1.793-1.793 1.793c-.391.391-1.023.391-1.414 0s-.391-1.023 0-1.414l1.793-1.793-1.793-1.793c-.391-.391-.391-1.023 0-1.414s1.023-.391 1.414 0l1.793 1.793 1.793-1.793c.391-.391 1.023-.391 1.414 0s.391 1.023 0 1.414zm6.715-4.695c-.169.397-.591.667-1.002.597-.075 1.449-.198 2.953-.406 4.528-.85 6.431-2.303 9.898-2.586 10.527-.112.25-.321.442-.579.533-.532.188-2.491.803-5.349.803s-4.816-.614-5.35-.803c-.258-.091-.467-.284-.579-.533-.282-.629-1.735-4.093-2.585-10.527-.207-1.566-.331-3.072-.407-4.529-.419.033-.829-.188-1.002-.596-.213-.509.025-1.094.533-1.309.108-.046 1.847-.763 4.518-1.252.306-1.131.636-1.633.737-1.765.145-.189.352-.32.584-.37.061-.013 1.498-.317 3.549-.317s3.52.303 3.581.315c.235.049.445.181.591.373.101.132.432.635.738 1.771 2.648.489 4.37 1.199 4.479 1.245.508.214.746.799.533 1.308zm-3.391 4.863c.225-1.708.358-3.338.42-4.882-1.522-.437-3.965-.974-6.821-.991-2.827-.029-5.557.542-7.083.991.063 1.554.197 3.185.421 4.881.699 5.294 1.796 8.423 2.257 9.567.745.218 2.236.558 4.274.558s3.53-.34 4.273-.558c.461-1.145 1.559-4.275 2.258-9.567z"/></svg>