<svg width="24" height="24" viewBox="0 0 24 24" fill="none" xmlns="http://www.w3.org/2000/svg">
<path d="M21.463 6.509C21.395 6.388 21.302 6.282 21.191 6.199C19.561 4.979 14.08 1 12 1C9.92 1 4.439 4.979 2.809 6.199C2.698 6.282 2.605 6.388 2.537 6.509C2.474 6.62 1 9.297 1 14.5C1 17.626 2.008 20.688 2.051 20.816C2.141 21.087 2.343 21.306 2.606 21.419C2.757 21.484 6.359 23 12 23C17.641 23 21.243 21.484 21.394 21.419C21.656 21.307 21.858 21.087 21.949 20.816C21.992 20.687 23 17.626 23 14.5C23 9.297 21.526 6.621 21.463 6.509ZM12 21C7.856 21 4.873 20.108 3.814 19.738C3.552 18.823 3 16.642 3 14.5C3 10.572 3.916 8.273 4.198 7.659C7.254 5.391 11.047 3 12 3C12.953 3 16.746 5.391 19.802 7.658C20.087 8.28 21 10.577 21 14.5C21 16.643 20.448 18.825 20.186 19.739C19.133 20.109 16.167 21 12 21Z" fill="white"/>
</svg>
