<svg width="20" height="26" viewBox="0 0 20 26" fill="none" xmlns="http://www.w3.org/2000/svg">
<path d="M17.7284 18.1277C15.907 20.5259 13.5076 21.7551 10.9254 20.1533C8.4778 18.5396 8.26939 14.6526 10.7653 12.9819C12.7492 11.6539 15.6314 11.9358 17.0349 14.1218C17.8998 15.4688 18.1867 15.6468 18.4677 15.7575C18.8218 15.9295 20.4719 15.7945 19.7433 14.0855C18.5456 11.2765 16.5815 10.2792 15.7123 9.90035C15.1336 9.64808 13.98 9.41567 12.3614 9.56979C12.0603 9.59847 11.9983 9.53773 11.9496 9.48993L11.9474 9.48781L11.9472 9.48756C11.9334 9.47409 11.8083 9.35174 11.949 9.12504C12.493 8.24871 13.9602 6.11652 14.4391 5.47115C14.9236 4.81812 16.1214 3.28865 16.4266 2.65155C16.8335 1.80203 15.9574 -0.108392 14.2403 1.69262C12.1933 3.8396 9.87938 6.80115 9.01529 8.52715C8.84634 8.86463 8.73255 9.16222 8.56053 9.51639C8.15813 10.1621 7.72821 9.89764 7.97482 9.02596C8.801 6.10567 11.2057 3.00682 11.5915 2.40151C12.1867 1.46759 12.2796 0.984855 11.9808 0.672382C11.6 0.274238 10.797 0.3181 10.4159 0.607503C9.67481 1.1702 8.06505 2.99829 6.72362 5.61163C5.38219 8.22496 5.05874 9.01286 4.81351 9.30572C4.51291 9.73905 4.39208 9.13965 4.53434 8.44917C4.70011 7.6446 5.2141 5.40632 7.02957 2.94083C7.94258 1.70092 6.60576 1.21584 5.91945 1.88666C5.20647 2.58355 0.628982 7.98131 0.60518 15.3724C0.586138 21.2852 3.91114 23.6212 5.77305 24.7444C6.46794 25.1636 9.22959 26.2688 12.4224 25.5795C17.1222 24.5649 19.3171 21.015 19.7683 18.964C20.0331 17.7603 19.6492 17.6188 19.4355 17.5021C19.2218 17.3855 18.3937 17.1597 17.7284 18.1277Z" fill="#FF4C00"/>
</svg>
