<svg width="24" height="24" viewBox="0 0 24 24" fill="none" xmlns="http://www.w3.org/2000/svg">
<path d="M12.0061 12.309C15.6171 12.288 17.5611 10.338 17.6281 6.63801C17.5661 3.07801 15.5171 1.02401 11.9941 1.00101C8.43307 1.02301 6.37207 3.17101 6.37207 6.63801C6.37207 10.209 8.43407 12.289 12.0061 12.31V12.309ZM11.9941 3.00001C14.4311 3.01601 15.5851 4.18301 15.6281 6.63601C15.5811 9.19501 14.4951 10.293 12.0061 10.308C9.51107 10.293 8.42407 9.20001 8.37207 6.65401C8.42207 4.14301 9.54307 3.01501 11.9941 3.00001Z" fill="white"/>
<path d="M11.9943 13.661C6.66629 13.695 3.79929 16.572 3.70329 21.983C3.69329 22.535 4.13329 22.991 4.68529 23.001C5.20129 22.982 5.69229 22.571 5.70329 22.019C5.77929 17.708 7.78329 15.688 11.9943 15.662C16.1623 15.689 18.2243 17.768 18.2983 22.018C18.3083 22.564 18.7543 23.001 19.2983 23.001H19.3163C19.8683 22.991 20.3083 22.536 20.2993 21.984C20.2073 16.651 17.2633 13.696 11.9953 13.662L11.9943 13.661Z" fill="white"/>
</svg>
