<svg width="24" height="24" viewBox="0 0 24 24" fill="none" xmlns="http://www.w3.org/2000/svg">
<path d="M22.705 21.253L18.306 16.879C19.487 15.318 20.116 13.2 20.165 10.55C20.06 4.45499 16.658 1.07699 10.577 1.03699C4.423 1.07599 1 4.64899 1 10.549C1 16.744 4.426 20.061 10.589 20.097C13.218 20.081 15.328 19.471 16.892 18.292L21.295 22.671C21.813 23.163 22.426 22.962 22.709 22.667C23.092 22.269 23.097 21.642 22.705 21.253ZM3 10.567C3.097 5.53199 5.579 3.06799 10.576 3.03699C15.525 3.06899 18.079 5.60799 18.165 10.549C18.071 15.669 15.66 18.067 10.589 18.097C5.512 18.067 3.1 15.675 3 10.567Z" fill="white"/>
</svg>
